<?xml version="1.0" encoding="UTF-8" standalone="no"?>
<svg
   xmlns:dc="http://purl.org/dc/elements/1.1/"
   xmlns:cc="http://creativecommons.org/ns#"
   xmlns:rdf="http://www.w3.org/1999/02/22-rdf-syntax-ns#"
   xmlns:svg="http://www.w3.org/2000/svg"
   xmlns="http://www.w3.org/2000/svg"
   id="svg49"
   xml:space="preserve"
   viewBox="0 0 1024 768"
   y="0px"
   x="0px"
   version="1.1"><metadata
     id="metadata55"><rdf:RDF><cc:Work
         rdf:about=""><dc:format>image/svg+xml</dc:format><dc:type
           rdf:resource="http://purl.org/dc/dcmitype/StillImage" /></cc:Work></rdf:RDF></metadata><defs
     id="defs53" /><g
     transform="translate(-0.00181,-0.53009)"
     id="logo-group"><path
       stroke-miterlimit="2"
       class="c3"
       d="m 218.22,486.95 c 1.2551,0 2.4504,0.47813 3.3468,1.3746 2.9285,2.8687 5.9168,3.7054 9.8612,3.7054 3.8848,0 6.873,-0.83671 9.7418,-3.6457 0.89646,-0.77694 2.0918,-1.3148 3.3468,-1.3148 2.7493,0 4.9008,2.2113 4.9008,4.9007 0,1.4941 -0.65746,2.7492 -1.6137,3.7055 -4.841,4.3628 -10.519,6.2156 -16.376,6.2156 -5.857,0 -11.654,-1.9125 -16.555,-6.3949 -0.95624,-0.95624 -1.6137,-2.2113 -1.6137,-3.5859 0,-2.6894 2.1516,-4.9605 4.9605,-4.9605 z"
       style="font-variant-ligatures:normal;fill:#98ccde;stroke-width:0;stroke-miterlimit:2"
       id="path12" /><path
       stroke-miterlimit="2"
       class="c1"
       d="m 231.43,444.57 c -10.937,0 -20.081,8.9646 -20.081,19.962 0,11.176 9.1438,20.14 20.081,20.14 10.997,0 19.962,-8.9646 19.962,-20.14 0,-10.997 -8.9646,-19.962 -19.962,-19.962 z m 0,30.241 c -5.6179,0 -10.28,-4.5423 -10.28,-10.279 0,-5.6179 4.6619,-10.16 10.28,-10.16 5.5583,0 10.101,4.5423 10.101,10.16 0,5.737 -4.5423,10.279 -10.101,10.279 z"
       style="font-variant-ligatures:normal;fill:#66aedf;stroke-width:0;stroke-miterlimit:2"
       id="path14" /><path
       stroke-miterlimit="2"
       class="c3"
       d="m 241.29,439.32 c 0,-2.8687 2.3308,-5.1996 5.1996,-5.1996 2.809,0 5.08,2.3309 5.08,5.1996 v 0.0598 c 0,2.8687 -2.2711,5.1996 -5.08,5.1996 -2.8687,0 -5.1996,-2.3308 -5.1996,-5.1996 z"
       style="font-variant-ligatures:normal;fill:#98ccde;stroke-width:0;stroke-miterlimit:2"
       id="path16" /><path
       stroke-miterlimit="2"
       class="c1"
       d="m 280.02,444.57 c -10.921,0 -20.051,8.9517 -20.051,19.932 0,2.7449 2.2083,4.9532 4.9532,4.9532 h 30.077 c 2.7449,0 4.9532,-2.2083 4.9532,-4.9532 0,-10.98 -8.9513,-19.932 -19.932,-19.932 z m 0,9.7869 c 3.7926,0 7.1093,2.12 8.8305,5.2515 h -17.81 c 1.7609,-3.1316 5.1462,-5.2515 8.9796,-5.2515 z"
       style="font-variant-ligatures:normal;fill:#66aedf;stroke-width:0;stroke-miterlimit:2"
       id="path19" /><path
       stroke-miterlimit="2"
       class="c1"
       d="m 291.28,472.62 c -1.6722,-1.0059 -3.7666,-0.89727 -5.3638,0.22371 -1.6746,1.1753 -3.7127,1.8675 -5.8992,1.8679 v -4e-4 c -2.1868,0 -4.225,-0.69221 -5.9,-1.8679 -1.5972,-1.121 -3.6916,-1.2296 -5.3638,-0.22371 -3.0246,1.8197 -3.1717,6.1415 -0.29139,8.1817 3.2843,2.3263 7.282,3.6965 11.554,3.6969 v 4.1e-4 c 4.2728,0 8.2704,-1.3706 11.555,-3.6969 2.8803,-2.0402 2.7332,-6.362 -0.29139,-8.1817 z"
       style="font-variant-ligatures:normal;fill:#66aedf;stroke-width:0;stroke-miterlimit:2"
       id="path21" /><path
       stroke-miterlimit="2"
       class="c3"
       d="m 290.1,464.51 c 0,-1.7759 -0.45715,-3.4428 -1.2547,-4.8933 h -17.81 c -0.81581,1.4505 -1.2847,3.1174 -1.2847,4.8933 0,2.7449 -2.2079,4.9532 -4.8337,4.9532 h 30.077 c -2.6853,0 -4.8933,-2.2083 -4.8933,-4.9532 z"
       style="font-variant-ligatures:normal;fill:#98ccde;stroke-width:0;stroke-miterlimit:2"
       id="path23" /><path
       stroke-miterlimit="2"
       class="c2"
       d="m 295,459.61 h -6.148 c 0.79758,1.4505 1.2547,3.1174 1.2547,4.8933 0,2.7449 2.2079,4.9532 4.8933,4.9532 2.7449,0 4.9532,-2.2083 4.9532,-4.9532 0,-2.6853 -2.2083,-4.8933 -4.9532,-4.8933 z"
       style="font-variant-ligatures:normal;fill:#7fbdde;stroke-width:0;stroke-miterlimit:2"
       id="path25" /><path
       stroke-miterlimit="2"
       class="c2"
       d="m 269.75,464.51 c 0,-1.7759 0.4689,-3.4428 1.2847,-4.8933 h -6.1184 c -2.7449,0 -4.9532,2.2079 -4.9532,4.8933 0,2.7449 2.2083,4.9532 4.9532,4.9532 2.6258,0 4.8337,-2.2083 4.8337,-4.9532 z"
       style="font-variant-ligatures:normal;fill:#7fbdde;stroke-width:0;stroke-miterlimit:2"
       id="path27" /><path
       stroke-miterlimit="2"
       class="c3"
       d="m 291.28,472.62 c -1.6722,-1.0059 -3.7666,-0.89727 -5.3638,0.22371 -1.6746,1.1753 -3.7127,1.8675 -5.8992,1.8679 v -4e-4 c -2.1868,0 -4.225,-0.69221 -5.9,-1.8679 -1.5972,-1.121 -3.6916,-1.2296 -5.3638,-0.22371 -3.0246,1.8197 -3.1717,6.1415 -0.29139,8.1817 3.2843,2.3263 7.282,3.6965 11.554,3.6969 v 4.1e-4 c 4.2728,0 8.2704,-1.3706 11.555,-3.6969 2.8803,-2.0402 2.7332,-6.362 -0.29139,-8.1817 z"
       style="font-variant-ligatures:normal;fill:#98ccde;stroke-width:0;stroke-miterlimit:2"
       id="path29" /><path
       stroke-miterlimit="2"
       class="c1"
       d="m 309.32,479.3 v -14.762 c 0,-10.997 8.9649,-19.962 19.962,-19.962 10.937,0 20.081,8.9648 20.081,19.962 V 479.3 c 0,2.7492 -2.2114,4.9605 -4.9008,4.9605 -2.7492,0 -4.9605,-2.2113 -4.9605,-4.9605 v -14.762 c 0,-5.618 -4.6019,-10.16 -10.22,-10.16 -5.5581,0 -10.16,4.5421 -10.16,10.16 V 479.3 c 0,2.7492 -2.1516,4.9605 -4.841,4.9605 -2.7492,0 -4.9606,-2.2113 -4.9606,-4.9605 z"
       style="font-variant-ligatures:normal;fill:#66aedf;stroke-width:0;stroke-miterlimit:2"
       id="path32" /><path
       stroke-miterlimit="2"
       class="c1"
       d="m 407.23,477.35 -9.7189,-21.215 c -0.0235,-0.0507 -0.0506,-0.0993 -0.075,-0.14955 -0.051,-0.10619 -0.10578,-0.21075 -0.15847,-0.31571 -0.1005,-0.19859 -0.20101,-0.39677 -0.3076,-0.59211 -0.032,-0.0584 -0.0665,-0.11591 -0.0989,-0.17386 -1.8695,-3.3411 -4.6675,-6.0908 -8.0264,-7.9109 -0.002,-8.2e-4 -0.003,-0.002 -0.005,-0.003 -0.26302,-0.14225 -0.5301,-0.27801 -0.7996,-0.40892 -0.0316,-0.0154 -0.0633,-0.0312 -0.0948,-0.0466 -0.24519,-0.11753 -0.49363,-0.22858 -0.74368,-0.33638 -0.0596,-0.0255 -0.11915,-0.0519 -0.17913,-0.077 -0.22817,-0.0952 -0.45917,-0.18561 -0.6914,-0.27274 -0.0855,-0.032 -0.17062,-0.0645 -0.25654,-0.0953 -0.0956,-0.0344 -0.18926,-0.0729 -0.28572,-0.10618 -0.0466,-0.0158 -0.0928,-0.0235 -0.13941,-0.0381 -1.9891,-0.66626 -4.1078,-1.033 -6.302,-1.033 -11.008,0 -19.972,8.9642 -19.972,19.973 0,11.166 8.9638,20.13 19.972,20.13 6.7673,0 12.839,-3.4388 16.484,-8.7065 l 2.4953,5.4542 c 0.79717,1.7419 2.5366,2.8592 4.4523,2.8592 3.5672,0 5.9373,-3.6924 4.4515,-6.9354 z m -27.883,-2.5006 c -5.5826,0 -10.144,-4.5605 -10.144,-10.301 0,-5.583 4.561,-10.144 10.144,-10.144 1.3301,0 2.6035,0.26545 3.7767,0.73557 0.0867,0.0344 0.17386,0.0677 0.25979,0.10456 0.26099,0.11307 0.51713,0.23465 0.76677,0.36799 0.0207,0.0109 0.0418,0.0215 0.0624,0.0328 3.1729,1.7256 5.3565,5.0732 5.3565,8.9026 0,5.7403 -4.6392,10.301 -10.222,10.301 z"
       style="font-variant-ligatures:normal;fill:#66aedf;stroke-width:0;stroke-miterlimit:2"
       id="path35" /><path
       stroke-miterlimit="2"
       class="c3"
       d="m 407.23,477.35 -9.7189,-21.215 c -0.0235,-0.0507 -0.0506,-0.0993 -0.075,-0.14955 1.2543,2.597 1.9623,5.5004 1.9623,8.563 0,4.2521 -1.3256,8.1829 -3.5676,11.423 l 2.4953,5.4542 c 0.79717,1.7419 2.5366,2.8592 4.4523,2.8592 3.5672,0 5.9372,-3.6924 4.4515,-6.9354 z"
       style="font-variant-ligatures:normal;fill:#98ccde;stroke-width:0;stroke-miterlimit:2"
       id="path37" /><path
       stroke-miterlimit="2"
       class="c2"
       d="m 397.43,455.98 c -0.051,-0.10619 -0.10577,-0.21034 -0.15846,-0.31571 -0.10051,-0.19859 -0.20102,-0.39717 -0.30761,-0.59211 -0.032,-0.0584 -0.0665,-0.1155 -0.0989,-0.17386 -1.8699,-3.3334 -4.6667,-6.088 -8.0264,-7.9109 -0.002,-8.2e-4 -0.003,-0.002 -0.005,-0.003 -0.26302,-0.14266 -0.5301,-0.27801 -0.79961,-0.40892 -0.0316,-0.0154 -0.0632,-0.0312 -0.0948,-0.0466 -0.24519,-0.11753 -0.49362,-0.22858 -0.74368,-0.33638 -0.0596,-0.0255 -0.11914,-0.0519 -0.17913,-0.077 -0.22816,-0.0952 -0.45917,-0.18561 -0.69139,-0.27274 -0.0855,-0.032 -0.17063,-0.0645 -0.25654,-0.0953 -0.14063,-0.0507 -0.28329,-0.0969 -0.42514,-0.14428 -3.1178,-0.96536 -6.302,1.4172 -6.302,4.7097 0,2.1115 1.3589,3.9611 3.3544,4.6517 0.14387,0.0498 0.28086,0.11429 0.4223,0.17021 0.0867,0.0349 0.17426,0.0677 0.25978,0.10457 0.2614,0.11186 0.51591,0.23546 0.76678,0.36799 0.0207,0.0109 0.0418,0.0215 0.0624,0.0328 1.9088,1.0245 3.4785,2.6201 4.413,4.578 l 7.205,15.748 c 2.242,-3.2406 3.5676,-7.1713 3.5676,-11.423 0,-3.0626 -0.70801,-5.966 -1.9623,-8.563 z"
       style="font-variant-ligatures:normal;fill:#7fbdde;stroke-width:0;stroke-miterlimit:2"
       id="path39" /><path
       stroke-miterlimit="2"
       class="c1"
       d="m 411.3,479.3 v -29.404 c 0,-2.7492 2.2114,-4.9605 4.9606,-4.9605 2.6894,0 4.841,2.2113 4.841,4.9605 V 479.3 c 0,2.7492 -2.1516,4.9605 -4.841,4.9605 -2.7492,0 -4.9606,-2.2113 -4.9606,-4.9605 z"
       style="font-variant-ligatures:normal;fill:#66aedf;stroke-width:0;stroke-miterlimit:2"
       id="path42" /><path
       stroke-miterlimit="2"
       class="c1"
       d="m 451.85,444.57 c -10.921,0 -20.051,8.9517 -20.051,19.932 0,2.7449 2.2083,4.9532 4.9532,4.9532 h 30.077 c 2.7449,0 4.9532,-2.2083 4.9532,-4.9532 0,-10.98 -8.9513,-19.932 -19.932,-19.932 z m 0,9.7869 c 3.7926,0 7.1093,2.12 8.8305,5.2515 h -17.81 c 1.7609,-3.1316 5.1462,-5.2515 8.9796,-5.2515 z"
       style="font-variant-ligatures:normal;fill:#66aedf;stroke-width:0;stroke-miterlimit:2"
       id="path45" /><path
       stroke-miterlimit="2"
       class="c1"
       d="m 463.12,472.62 c -1.6722,-1.0059 -3.7666,-0.89727 -5.3638,0.22371 -1.6746,1.1753 -3.7127,1.8675 -5.8992,1.8679 v -4e-4 c -2.1868,0 -4.225,-0.69221 -5.9,-1.8679 -1.5972,-1.121 -3.6916,-1.2296 -5.3638,-0.22371 -3.0246,1.8197 -3.1717,6.1415 -0.29139,8.1817 3.2843,2.3263 7.282,3.6965 11.554,3.6969 v 4.1e-4 c 4.2728,0 8.2704,-1.3706 11.555,-3.6969 2.8803,-2.0402 2.7332,-6.362 -0.29139,-8.1817 z"
       style="font-variant-ligatures:normal;fill:#66aedf;stroke-width:0;stroke-miterlimit:2"
       id="path47" /><path
       stroke-miterlimit="2"
       class="c3"
       d="m 461.94,464.51 c 0,-1.7759 -0.45715,-3.4428 -1.2547,-4.8933 h -17.81 c -0.81581,1.4505 -1.2847,3.1174 -1.2847,4.8933 0,2.7449 -2.2079,4.9532 -4.8337,4.9532 h 30.077 c -2.6853,0 -4.8933,-2.2083 -4.8933,-4.9532 z"
       style="font-variant-ligatures:normal;fill:#98ccde;stroke-width:0;stroke-miterlimit:2"
       id="path49" /><path
       stroke-miterlimit="2"
       class="c2"
       d="m 466.83,459.61 h -6.148 c 0.79758,1.4505 1.2547,3.1174 1.2547,4.8933 0,2.7449 2.2079,4.9532 4.8933,4.9532 2.7449,0 4.9532,-2.2083 4.9532,-4.9532 0,-2.6853 -2.2083,-4.8933 -4.9532,-4.8933 z"
       style="font-variant-ligatures:normal;fill:#7fbdde;stroke-width:0;stroke-miterlimit:2"
       id="path51" /><path
       stroke-miterlimit="2"
       class="c2"
       d="m 441.59,464.51 c 0,-1.7759 0.4689,-3.4428 1.2847,-4.8933 h -6.1184 c -2.7449,0 -4.9532,2.2079 -4.9532,4.8933 0,2.7449 2.2083,4.9532 4.9532,4.9532 2.6258,0 4.8337,-2.2083 4.8337,-4.9532 z"
       style="font-variant-ligatures:normal;fill:#7fbdde;stroke-width:0;stroke-miterlimit:2"
       id="path53" /><path
       stroke-miterlimit="2"
       class="c3"
       d="m 463.12,472.62 c -1.6722,-1.0059 -3.7666,-0.89727 -5.3638,0.22371 -1.6746,1.1753 -3.7127,1.8675 -5.8992,1.8679 v -4e-4 c -2.1868,0 -4.225,-0.69221 -5.9,-1.8679 -1.5972,-1.121 -3.6916,-1.2296 -5.3638,-0.22371 -3.0246,1.8197 -3.1717,6.1415 -0.29139,8.1817 3.2843,2.3263 7.282,3.6965 11.554,3.6969 v 4.1e-4 c 4.2728,0 8.2704,-1.3706 11.555,-3.6969 2.8803,-2.0402 2.7332,-6.362 -0.29139,-8.1817 z"
       style="font-variant-ligatures:normal;fill:#98ccde;stroke-width:0;stroke-miterlimit:2"
       id="path55" /><path
       stroke-miterlimit="2"
       class="c1"
       d="m 519.35,449.62 c 0,0.009 8.3e-4,0.0174 8.3e-4,0.0263 v -0.0786 h -0.004 c -0.0415,-2.6882 -2.1828,-4.8292 -4.871,-4.8706 -2.6882,0.0413 -4.8302,2.1824 -4.9472,4.8706 h -0.006 c 0,5.5826 -4.5603,10.143 -10.143,10.143 -5.7397,0 -10.3,-4.5601 -10.3,-10.143 h -0.004 c -0.0413,-2.6882 -2.1826,-4.8292 -4.8708,-4.8706 -2.6884,0.0413 -4.8302,2.1824 -4.9474,4.8706 h -0.006 v 0.0786 c 2e-4,-0.006 10e-4,-0.0126 0.002,-0.0195 0.0174,5.9782 2.6811,11.345 6.9008,14.998 -4.2197,3.6527 -6.8834,9.0194 -6.9008,14.998 -4.1e-4,-0.007 -10e-4,-0.0129 -0.002,-0.0194 v 0.0786 h 0.006 c 0.11712,2.6882 2.259,4.8296 4.9474,4.871 2.6882,-0.0413 4.8294,-2.1828 4.8708,-4.871 h 0.004 c 0,-5.5826 4.5603,-10.143 10.3,-10.143 5.5824,0 10.143,4.5601 10.143,10.143 h 0.006 c 0.11692,2.6882 2.259,4.8296 4.9472,4.871 2.6882,-0.0413 4.8294,-2.1828 4.871,-4.871 h 0.004 v -0.0786 c 0,0.009 -8.3e-4,0.0174 -8.3e-4,0.0263 -0.0156,-5.9806 -2.6797,-11.35 -6.8755,-15.004 4.1958,-3.6544 6.8599,-9.0238 6.8755,-15.005 z"
       style="font-variant-ligatures:normal;fill:#66aedf;stroke-width:0;stroke-miterlimit:2"
       id="path58" /><path
       stroke-miterlimit="2"
       class="c2"
       d="m 486.16,464.62 c 3.5307,3.0562 8.1486,4.9139 13.226,4.9139 5.0055,0 9.5847,-1.8578 13.094,-4.9139 -3.5095,-3.0566 -8.0886,-4.9144 -13.094,-4.9144 -5.0773,0 -9.6952,1.8578 -13.226,4.9144 z"
       style="font-variant-ligatures:normal;fill:#7fbdde;stroke-width:0;stroke-miterlimit:2"
       id="path60" /><path
       stroke-miterlimit="2"
       class="c3"
       d="m 512.48,464.62 c -3.5095,3.0562 -8.0886,4.9139 -13.094,4.9139 5.5824,0 10.143,4.5601 10.143,10.143 v -0.0786 c 6.1e-4,0.0263 0.005,0.0523 0.006,0.0786 0.11693,2.6882 2.259,4.8296 4.9472,4.871 2.6882,-0.0413 4.8294,-2.1828 4.871,-4.871 2e-4,-0.0174 0.002,-0.0344 0.002,-0.0523 -0.0156,-5.9806 -2.6797,-11.35 -6.8755,-15.004 z"
       style="font-variant-ligatures:normal;fill:#98ccde;stroke-width:0;stroke-miterlimit:2"
       id="path62" /><path
       stroke-miterlimit="2"
       class="c3"
       d="m 479.26,479.62 c 6.1e-4,0.0198 0.004,0.0393 0.004,0.0592 0.11712,2.6882 2.259,4.8296 4.9474,4.871 2.6882,-0.0413 4.8294,-2.1828 4.8708,-4.871 4.1e-4,-0.0263 0.004,-0.0523 0.004,-0.0786 v 0.0786 c 0,-5.5826 4.5603,-10.143 10.3,-10.143 -5.0773,0 -9.6952,-1.8578 -13.226,-4.9139 -4.2197,3.6527 -6.8834,9.0194 -6.9008,14.998 z"
       style="font-variant-ligatures:normal;fill:#98ccde;stroke-width:0;stroke-miterlimit:2"
       id="path64" /><path
       stroke-miterlimit="2"
       class="c1"
       d="m 549.33,484.68 c -3.7334,0 -7.2568,-1.046 -10.28,-2.8592 v 8.1779 c 0,2.9698 -2.5107,5.3119 -5.4979,4.9172 -2.5022,-0.33111 -4.3036,-2.5905 -4.3036,-5.1146 v -24.979 c 0,-0.0138 0.002,-0.0272 0.002,-0.0409 0,-0.0215 -0.002,-0.0421 -0.002,-0.0636 0,-11.176 9.1438,-20.141 20.081,-20.141 10.997,0 19.961,8.9651 19.961,20.141 0,10.997 -8.9646,19.962 -19.961,19.962 z m 0,-30.241 c -0.98319,0 -1.9344,0.14631 -2.8389,0.4065 -0.19291,0.096 -0.38988,0.18683 -0.59697,0.25896 -3.6945,1.2908 -6.4503,4.6797 -6.8033,8.8167 -0.0109,0.14185 -0.0166,0.2849 -0.0219,0.42837 -0.006,0.1378 -0.0154,0.27437 -0.0162,0.41379 0.0247,5.5968 4.6744,10.115 10.277,10.115 5.5579,0 10.1,-4.5423 10.1,-10.16 0,-5.7375 -4.5423,-10.279 -10.1,-10.279 z"
       style="font-variant-ligatures:normal;fill:#66aedf;stroke-width:0;stroke-miterlimit:2"
       id="path67" /><path
       stroke-miterlimit="2"
       class="c3"
       d="m 539.05,481.82 v 8.1779 c 0,2.9698 -2.5107,5.3119 -5.4979,4.9172 -2.5022,-0.33111 -4.3036,-2.5905 -4.3036,-5.1146 v -24.979 c 0,-0.0138 0.002,-0.0272 0.002,-0.0409 0.0235,7.2167 3.9834,13.55 9.7999,17.039 z"
       style="font-variant-ligatures:normal;fill:#98ccde;stroke-width:0;stroke-miterlimit:2"
       id="path69" /><path
       stroke-miterlimit="2"
       class="c2"
       d="m 542.96,445.68 c 3.0736,-1.0201 6.2513,1.2414 6.2513,4.4799 v 0.42554 c 0,1.8476 -1.0942,3.4456 -2.7194,4.2521 -4.0223,1.157 -7.0659,4.7048 -7.4003,9.0757 -0.0122,0.14144 -0.0154,0.28531 -0.0219,0.42837 -0.004,0.12361 -0.0186,0.24398 -0.0186,0.3688 0,0.0154 0.002,0.0296 0.002,0.045 -4e-4,0.0199 -0.002,0.0397 -0.002,0.0596 v 16.998 c -5.8165,-3.4886 -9.7764,-9.8222 -9.7999,-17.039 0.0178,-8.9407 5.7711,-16.46 13.709,-19.094 z"
       style="font-variant-ligatures:normal;fill:#7fbdde;stroke-width:0;stroke-miterlimit:2"
       id="path71" /><path
       stroke-miterlimit="2"
       class="c1"
       d="m 598.18,444.57 c -10.921,0 -20.051,8.9517 -20.051,19.932 0,2.7449 2.2083,4.9532 4.9532,4.9532 h 30.077 c 2.7449,0 4.9532,-2.2083 4.9532,-4.9532 0,-10.98 -8.9513,-19.932 -19.932,-19.932 z m 0,9.7869 c 3.7926,0 7.1093,2.12 8.8305,5.2515 h -17.81 c 1.7609,-3.1316 5.1462,-5.2515 8.9796,-5.2515 z"
       style="font-variant-ligatures:normal;fill:#66aedf;stroke-width:0;stroke-miterlimit:2"
       id="path74" /><path
       stroke-miterlimit="2"
       class="c1"
       d="m 609.44,472.62 c -1.6722,-1.0059 -3.7666,-0.89727 -5.3638,0.22371 -1.6746,1.1753 -3.7127,1.8675 -5.8992,1.8679 v -4e-4 c -2.1868,0 -4.225,-0.69221 -5.9,-1.8679 -1.5972,-1.121 -3.6916,-1.2296 -5.3638,-0.22371 -3.0246,1.8197 -3.1717,6.1415 -0.29139,8.1817 3.2843,2.3263 7.282,3.6965 11.554,3.6969 v 4.1e-4 c 4.2728,0 8.2704,-1.3706 11.555,-3.6969 2.8803,-2.0402 2.7332,-6.362 -0.29139,-8.1817 z"
       style="font-variant-ligatures:normal;fill:#66aedf;stroke-width:0;stroke-miterlimit:2"
       id="path76" /><path
       stroke-miterlimit="2"
       class="c3"
       d="m 608.27,464.51 c 0,-1.7759 -0.45715,-3.4428 -1.2547,-4.8933 h -17.81 c -0.81581,1.4505 -1.2847,3.1174 -1.2847,4.8933 0,2.7449 -2.2079,4.9532 -4.8337,4.9532 h 30.077 c -2.6853,0 -4.8933,-2.2083 -4.8933,-4.9532 z"
       style="font-variant-ligatures:normal;fill:#98ccde;stroke-width:0;stroke-miterlimit:2"
       id="path78" /><path
       stroke-miterlimit="2"
       class="c2"
       d="m 613.16,459.61 h -6.148 c 0.79758,1.4505 1.2547,3.1174 1.2547,4.8933 0,2.7449 2.2079,4.9532 4.8933,4.9532 2.7449,0 4.9532,-2.2083 4.9532,-4.9532 0,-2.6853 -2.2083,-4.8933 -4.9532,-4.8933 z"
       style="font-variant-ligatures:normal;fill:#7fbdde;stroke-width:0;stroke-miterlimit:2"
       id="path80" /><path
       stroke-miterlimit="2"
       class="c2"
       d="m 587.92,464.51 c 0,-1.7759 0.4689,-3.4428 1.2847,-4.8933 h -6.1184 c -2.7449,0 -4.9532,2.2079 -4.9532,4.8933 0,2.7449 2.2083,4.9532 4.9532,4.9532 2.6258,0 4.8337,-2.2083 4.8337,-4.9532 z"
       style="font-variant-ligatures:normal;fill:#7fbdde;stroke-width:0;stroke-miterlimit:2"
       id="path82" /><path
       stroke-miterlimit="2"
       class="c3"
       d="m 609.44,472.62 c -1.6722,-1.0059 -3.7666,-0.89727 -5.3638,0.22371 -1.6746,1.1753 -3.7127,1.8675 -5.8992,1.8679 v -4e-4 c -2.1868,0 -4.225,-0.69221 -5.9,-1.8679 -1.5972,-1.121 -3.6916,-1.2296 -5.3638,-0.22371 -3.0246,1.8197 -3.1717,6.1415 -0.29139,8.1817 3.2843,2.3263 7.282,3.6965 11.554,3.6969 v 4.1e-4 c 4.2728,0 8.2704,-1.3706 11.555,-3.6969 2.8803,-2.0402 2.7332,-6.362 -0.29139,-8.1817 z"
       style="font-variant-ligatures:normal;fill:#98ccde;stroke-width:0;stroke-miterlimit:2"
       id="path84" /><path
       stroke-miterlimit="2"
       class="c1"
       d="m 637.28,464.54 v 14.762 c 0,2.7492 -2.1516,4.9605 -4.841,4.9605 -2.7494,0 -4.9605,-2.2113 -4.9605,-4.9605 V 464.54 c 0,-10.997 8.9646,-19.962 19.962,-19.962 5.4386,0 10.459,2.1516 14.105,5.7972 1.8527,1.9723 1.8527,4.9606 0,6.9328 -1.9723,1.8528 -4.9606,1.8528 -6.9326,0.0598 -1.7931,-1.9125 -4.4228,-2.9882 -7.1719,-2.9882 -5.5581,0 -10.16,4.5421 -10.16,10.16 z"
       style="font-variant-ligatures:normal;fill:#66aedf;stroke-width:0;stroke-miterlimit:2"
       id="path87" /><path
       stroke-miterlimit="2"
       class="c1"
       d="m 692,474.84 c -0.0267,0 -0.0523,-0.003 -0.0786,-0.003 H 692 c -5.5871,0 -10.151,-4.5642 -10.151,-10.309 v -9.7581 h 5.1936 c 2.7409,0 4.9346,-2.1824 4.9557,-4.9184 -0.0211,-2.7356 -2.2148,-4.918 -4.9557,-4.918 h -5.1936 v -5.7448 c 0,-2.7409 -2.1828,-4.9342 -4.9184,-4.9557 -2.7356,0.0215 -4.9184,2.2148 -4.9184,4.9557 v 25.339 c 0,11.154 8.9391,20.112 19.929,20.144 0.0198,-4.1e-4 0.0393,-0.003 0.0592,-0.004 2.6902,-0.11712 4.8333,-2.261 4.875,-4.9516 -0.0417,-2.6902 -2.1848,-4.8333 -4.875,-4.875 z"
       style="font-variant-ligatures:normal;fill:#66aedf;stroke-width:0;stroke-miterlimit:2"
       id="path90" /><path
       stroke-miterlimit="2"
       class="c2"
       d="m 681.85,444.94 h -4.9184 c -2.7162,0 -4.9182,2.202 -4.9182,4.9182 0,2.7162 2.202,4.9182 4.9182,4.9182 h 4.9184 z"
       style="font-variant-ligatures:normal;fill:#7fbdde;stroke-width:0;stroke-miterlimit:2"
       id="path92" /><path
       stroke-miterlimit="2"
       class="c3"
       d="m 687.05,454.77 c 2.7409,0 4.9344,-2.1824 4.9557,-4.9184 -0.0213,-2.7356 -2.2148,-4.918 -4.9557,-4.918 h -5.1938 v 9.8364 z"
       style="font-variant-ligatures:normal;fill:#98ccde;stroke-width:0;stroke-miterlimit:2"
       id="path94" /><path
       stroke-miterlimit="2"
       class="c1"
       d="m 706.71,479.3 v -29.404 c 0,-2.7492 2.2114,-4.9605 4.9606,-4.9605 2.6894,0 4.841,2.2113 4.841,4.9605 V 479.3 c 0,2.7492 -2.1516,4.9605 -4.841,4.9605 -2.7492,0 -4.9606,-2.2113 -4.9606,-4.9605 z"
       style="font-variant-ligatures:normal;fill:#66aedf;stroke-width:0;stroke-miterlimit:2"
       id="path97" /><path
       stroke-miterlimit="2"
       class="c1"
       d="m 731.09,474.46 h 5.3192 c 0.89647,0 1.6138,-0.59768 1.8529,-1.3746 l 5.3188,-19.902 c 1.4347,-5.08 5.6179,-8.2476 10.758,-8.2476 l 5.9166,0.0598 c 2.7494,0 4.901,2.1516 4.9606,4.9007 -0.0596,2.7492 -2.2112,4.9008 -4.9606,4.9008 h -5.3192 c -0.89647,0 -1.6134,0.5379 -1.8525,1.3148 l -5.3192,19.902 c -1.4343,5.08 -5.6179,8.2476 -10.758,8.2476 l -5.917,-0.0598 c -2.749,0 -4.9006,-2.1516 -4.9601,-4.9008 0.0596,-2.7492 2.2112,-4.8409 4.9601,-4.8409 z"
       style="font-variant-ligatures:normal;fill:#66aedf;stroke-width:0;stroke-miterlimit:2"
       id="path100" /><path
       stroke-miterlimit="2"
       class="c1"
       d="m 792.72,444.57 c -10.921,0 -20.051,8.9517 -20.051,19.932 0,2.7449 2.2083,4.9532 4.9532,4.9532 h 30.077 c 2.7449,0 4.9532,-2.2083 4.9532,-4.9532 0,-10.98 -8.9513,-19.932 -19.932,-19.932 z m 0,9.7869 c 3.7926,0 7.1093,2.12 8.8305,5.2515 h -17.81 c 1.7609,-3.1316 5.1462,-5.2515 8.9796,-5.2515 z"
       style="font-variant-ligatures:normal;fill:#66aedf;stroke-width:0;stroke-miterlimit:2"
       id="path103" /><path
       stroke-miterlimit="2"
       class="c1"
       d="m 803.99,472.62 c -1.6722,-1.0059 -3.7666,-0.89727 -5.3638,0.22371 -1.6746,1.1753 -3.7127,1.8675 -5.8992,1.8679 v -4e-4 c -2.1868,0 -4.225,-0.69221 -5.9,-1.8679 -1.5972,-1.121 -3.6916,-1.2296 -5.3638,-0.22371 -3.0246,1.8197 -3.1717,6.1415 -0.29139,8.1817 3.2843,2.3263 7.282,3.6965 11.554,3.6969 v 4.1e-4 c 4.2728,0 8.2704,-1.3706 11.555,-3.6969 2.8803,-2.0402 2.7332,-6.362 -0.29139,-8.1817 z"
       style="font-variant-ligatures:normal;fill:#66aedf;stroke-width:0;stroke-miterlimit:2"
       id="path105" /><path
       stroke-miterlimit="2"
       class="c3"
       d="m 802.81,464.51 c 0,-1.7759 -0.45715,-3.4428 -1.2547,-4.8933 h -17.81 c -0.81581,1.4505 -1.2847,3.1174 -1.2847,4.8933 0,2.7449 -2.2079,4.9532 -4.8337,4.9532 h 30.077 c -2.6853,0 -4.8933,-2.2083 -4.8933,-4.9532 z"
       style="font-variant-ligatures:normal;fill:#98ccde;stroke-width:0;stroke-miterlimit:2"
       id="path107" /><path
       stroke-miterlimit="2"
       class="c2"
       d="m 807.7,459.61 h -6.148 c 0.79758,1.4505 1.2547,3.1174 1.2547,4.8933 0,2.7449 2.2079,4.9532 4.8933,4.9532 2.7449,0 4.9532,-2.2083 4.9532,-4.9532 0,-2.6853 -2.2083,-4.8933 -4.9532,-4.8933 z"
       style="font-variant-ligatures:normal;fill:#7fbdde;stroke-width:0;stroke-miterlimit:2"
       id="path109" /><path
       stroke-miterlimit="2"
       class="c2"
       d="m 782.46,464.51 c 0,-1.7759 0.4689,-3.4428 1.2847,-4.8933 h -6.1184 c -2.7449,0 -4.9532,2.2079 -4.9532,4.8933 0,2.7449 2.2083,4.9532 4.9532,4.9532 2.6258,0 4.8337,-2.2083 4.8337,-4.9532 z"
       style="font-variant-ligatures:normal;fill:#7fbdde;stroke-width:0;stroke-miterlimit:2"
       id="path111" /><path
       stroke-miterlimit="2"
       class="c3"
       d="m 803.99,472.62 c -1.6722,-1.0059 -3.7666,-0.89727 -5.3638,0.22371 -1.6746,1.1753 -3.7127,1.8675 -5.8992,1.8679 v -4e-4 c -2.1868,0 -4.225,-0.69221 -5.9,-1.8679 -1.5972,-1.121 -3.6916,-1.2296 -5.3638,-0.22371 -3.0246,1.8197 -3.1717,6.1415 -0.29139,8.1817 3.2843,2.3263 7.282,3.6965 11.554,3.6969 v 4.1e-4 c 4.2728,0 8.2704,-1.3706 11.555,-3.6969 2.8803,-2.0402 2.7332,-6.362 -0.29139,-8.1817 z"
       style="font-variant-ligatures:normal;fill:#98ccde;stroke-width:0;stroke-miterlimit:2"
       id="path113" /><path
       style="fill:#66aedf;stroke-width:0.75"
       d="m 499.97,267.17 c -16.846,0.002 -30.816,0.02 -31.046,0.0383 -0.2295,0.0184 -0.567,0.0547 -0.75075,0.0801 -0.18375,0.0254 -0.56775,0.0934 -0.855,0.15052 -0.2865,0.0572 -0.75525,0.17056 -1.0425,0.25186 -0.2865,0.0817 -0.74625,0.2331 -1.0215,0.33697 -0.27525,0.1038 -0.72675,0.29603 -1.0035,0.42742 -0.2775,0.13095 -0.69225,0.34358 -0.9225,0.47288 -0.23025,0.1293 -0.63225,0.37823 -0.89325,0.55335 -0.261,0.17512 -0.7005,0.4983 -0.97575,0.7185 -0.27525,0.22058 -0.792,0.69225 -1.1482,1.0484 -0.357,0.35655 -0.81375,0.8544 -1.0162,1.1067 -0.20175,0.2523 -0.573,0.76815 -0.8235,1.1468 -0.2748,0.41366 -0.61091,0.99578 -0.84233,1.4595 -0.21183,0.42409 -0.48288,1.0292 -0.60214,1.344 -0.11885,0.31442 -0.29065,0.82522 -0.38114,1.1347 -0.0905,0.30941 -0.21141,0.79312 -0.26896,1.0746 -0.0576,0.2819 -0.13344,0.71891 -0.16847,0.97118 -0.0354,0.25228 -0.083,0.68388 -0.10591,0.9591 -0.0275,0.32818 -0.0417,12.095 -0.0421,34.226 l -4.2e-4,33.724 h -4.949 l -0.32192,0.0826 c -0.17722,0.045 -0.43743,0.14344 -0.5788,0.21892 -0.14094,0.0751 -0.36321,0.23519 -0.49372,0.35654 -0.13094,0.12093 -0.29565,0.31024 -0.36654,0.42034 -0.0705,0.11008 -0.17097,0.31149 -0.22268,0.44702 l -0.0938,0.24686 -0.0113,20.016 c -0.008,14.051 0.002,20.103 0.0329,20.308 0.0258,0.16722 0.1055,0.41825 0.18765,0.58839 0.0905,0.18848 0.22852,0.38281 0.37697,0.53167 0.12927,0.12885 0.34068,0.29858 0.47037,0.37739 0.12969,0.0784 0.3582,0.18682 0.50708,0.24019 l 0.27105,0.0976 2.5958,0.0117 2.5958,0.0117 v 4.371 c 0,2.5375 0.0175,4.597 0.0417,4.9089 0.0229,0.29607 0.0709,0.74434 0.10633,0.9966 0.0355,0.25228 0.11134,0.6893 0.16889,0.97117 0.0576,0.28148 0.17848,0.76523 0.26896,1.0746 0.0905,0.30942 0.26229,0.8202 0.38114,1.1347 0.11926,0.31483 0.39031,0.9195 0.60214,1.344 0.23144,0.4637 0.56754,1.0458 0.84233,1.4595 0.25103,0.37822 0.61966,0.88987 0.81855,1.1368 0.19933,0.24727 0.57129,0.66677 0.82687,0.93239 0.25563,0.26605 0.66053,0.65261 0.9003,0.85943 0.23936,0.20683 0.62467,0.51708 0.85613,0.68972 0.23143,0.17222 0.57087,0.41033 0.75435,0.52833 0.18348,0.11843 0.50623,0.31359 0.71682,0.43368 0.211,0.1201 0.6009,0.32193 0.86655,0.44828 0.26563,0.12635 0.69889,0.31317 0.96285,0.41491 0.26396,0.10217 0.69973,0.24937 0.9687,0.32735 0.26854,0.078 0.70431,0.18973 0.96787,0.24811 0.26397,0.0588 0.6768,0.13511 0.9174,0.17014 0.24103,0.0355 0.71016,0.0842 1.0425,0.10842 0.42576,0.0317 13.258,0.0409 43.41,0.0308 l 42.805,-0.0137 0.4954,-0.0725 c 0.27271,-0.0401 0.73558,-0.11968 1.0287,-0.17681 0.29315,-0.0571 0.79065,-0.17931 1.1055,-0.27105 0.31525,-0.0922 0.8373,-0.2723 1.1609,-0.40074 0.32318,-0.12802 0.82275,-0.35069 1.1092,-0.49456 0.2869,-0.14428 0.72767,-0.38739 0.97995,-0.54043 0.25229,-0.15346 0.61841,-0.39365 0.81315,-0.53376 0.19516,-0.14011 0.5421,-0.4049 0.77145,-0.58839 0.22935,-0.18306 0.70848,-0.62508 1.0646,-0.98205 0.35611,-0.35695 0.81232,-0.8553 1.0142,-1.1075 0.20141,-0.25229 0.51249,-0.67471 0.69097,-0.93825 0.17805,-0.26396 0.43201,-0.66345 0.56378,-0.88823 0.13177,-0.22518 0.37697,-0.6943 0.54502,-1.0425 0.16763,-0.34861 0.39948,-0.8874 0.51458,-1.1968 0.11509,-0.30983 0.27439,-0.7977 0.35403,-1.0842 0.0797,-0.2869 0.18348,-0.69931 0.2306,-0.9174 0.0476,-0.21809 0.10717,-0.51833 0.13303,-0.6672 0.0259,-0.14929 0.0767,-0.48706 0.11259,-0.7506 0.0554,-0.40616 0.0679,-1.2034 0.0817,-5.2008 l 0.0158,-4.7212 2.5937,-0.0117 2.5937,-0.0117 0.30775,-0.11259 c 0.1693,-0.0617 0.40407,-0.17597 0.52125,-0.25437 0.11759,-0.078 0.29607,-0.22476 0.3974,-0.32526 0.10132,-0.10091 0.23644,-0.26605 0.30107,-0.36654 0.0642,-0.10092 0.15972,-0.30734 0.21225,-0.4587 l 0.0951,-0.27564 v -40.35 l -0.0938,-0.24686 c -0.0517,-0.13553 -0.1522,-0.33694 -0.22267,-0.44703 -0.0709,-0.11009 -0.23561,-0.2994 -0.36655,-0.42033 -0.13052,-0.12135 -0.35278,-0.28148 -0.49372,-0.35654 -0.14137,-0.0755 -0.40157,-0.17389 -0.5788,-0.21892 l -0.32192,-0.0826 h -4.949 v -22.223 c 0,-14.434 -0.0146,-22.297 -0.0413,-22.438 -0.0225,-0.11927 -0.0872,-0.3311 -0.14346,-0.47038 -0.0563,-0.13927 -0.16429,-0.34486 -0.24018,-0.45619 -0.0675,-0.11175 -7.77,-7.7048 -17.115,-16.873 -9.3375,-9.168 -17.378,-17.048 -17.858,-17.51 -0.7425,-0.71835 -0.915,-0.86393 -1.17,-0.9915 -0.1725,-0.0817 -0.435,-0.17685 -0.6,-0.2106 -0.255,-0.0534 -4.1175,-0.0605 -30.918,-0.0559 z m -1.4287,4.71 29.366,-0.005 0.0113,12.791 0.0109,12.791 0.0972,0.51583 c 0.0534,0.28398 0.15972,0.74351 0.23602,1.0216 0.0767,0.27814 0.21851,0.71141 0.31567,0.9624 0.0976,0.25104 0.29357,0.68471 0.43577,0.9633 0.14219,0.27897 0.38614,0.70014 0.54126,0.93578 0.15554,0.23602 0.42827,0.60965 0.6059,0.83025 0.17765,0.22101 0.55712,0.628 0.84278,0.90405 0.28606,0.27647 0.70348,0.64051 0.92865,0.80985 0.22476,0.16888 0.633,0.44327 0.90742,0.60965 0.27438,0.16638 0.72808,0.40574 1.0078,0.53167 0.28022,0.12636 0.73559,0.30441 1.0116,0.39573 0.27606,0.0913 0.71558,0.21351 0.97665,0.27189 0.26146,0.0584 0.7089,0.1351 0.99495,0.17013 0.45745,0.0567 2.0842,0.0642 13.521,0.0642 h 13.005 v 41.95 h -102.58 v -33.782 c 0,-23.381 0.0134,-33.903 0.0438,-34.184 0.0242,-0.22268 0.0909,-0.63384 0.14761,-0.9141 0.0571,-0.27981 0.16931,-0.71515 0.24895,-0.96788 0.0801,-0.2527 0.22935,-0.65969 0.33235,-0.90487 0.10258,-0.24478 0.27355,-0.60674 0.3803,-0.804 0.10675,-0.19724 0.33026,-0.56504 0.49665,-0.81735 0.16638,-0.25229 0.46078,-0.64635 0.65469,-0.8757 0.19348,-0.22935 0.50206,-0.56003 0.68596,-0.73517 0.18349,-0.17472 0.48206,-0.43619 0.66304,-0.58046 0.18075,-0.14326 0.51149,-0.38041 0.73499,-0.52591 0.2235,-0.14512 0.60976,-0.36615 0.858,-0.4908 0.24901,-0.12472 0.59175,-0.28192 0.762,-0.34905 0.17025,-0.0671 0.46875,-0.1701 0.66375,-0.22807 0.195,-0.0584 0.50401,-0.13845 0.68626,-0.17805 0.183,-0.0401 0.49199,-0.0956 0.68849,-0.12428 0.28051,-0.0409 6.5543,-0.0526 29.723,-0.0563 z m 34.074,3.213 c 0.0208,0.008 5.9744,5.795 13.23,12.86 7.2558,7.0652 13.417,13.064 13.693,13.332 l 0.50041,0.48622 -11.342,-0.01 -11.342,-0.0104 -0.3753,-0.088 c -0.20642,-0.048 -0.52125,-0.13678 -0.69973,-0.19682 -0.17848,-0.0605 -0.45995,-0.17765 -0.6255,-0.26021 -0.16555,-0.083 -0.46037,-0.25437 -0.65553,-0.3803 -0.21309,-0.13803 -0.53084,-0.40615 -0.79604,-0.67262 -0.24312,-0.24395 -0.53627,-0.58422 -0.65137,-0.75645 -0.11508,-0.17223 -0.2848,-0.46287 -0.37654,-0.64635 -0.0917,-0.18306 -0.21601,-0.46955 -0.27564,-0.63593 -0.0601,-0.16638 -0.15095,-0.48538 -0.20225,-0.7089 l -0.0938,-0.40615 -0.0121,-10.96 c -0.007,-6.5311 0.003,-10.954 0.0254,-10.946 z m -20.55,77.97 h 58.338 v 34.611 h -116.67 v -34.611 z m 0,39.281 h 51.291 v 4.4736 c 0,3.7655 -0.01,4.5553 -0.0638,4.9894 -0.035,0.28397 -0.10008,0.67762 -0.14428,0.87442 -0.0438,0.19725 -0.12886,0.52751 -0.18849,0.73393 -0.0596,0.20641 -0.20391,0.61549 -0.32109,0.90907 -0.11676,0.29356 -0.32359,0.73434 -0.45953,0.97995 -0.13636,0.2452 -0.36946,0.62884 -0.51874,0.85155 -0.14929,0.22309 -0.44494,0.60757 -0.65678,0.85485 -0.21184,0.24728 -0.52042,0.57671 -0.68597,0.73183 -0.16513,0.15513 -0.44535,0.39741 -0.62216,0.53877 -0.17681,0.14094 -0.50416,0.37655 -0.72766,0.52333 -0.22352,0.14679 -0.62718,0.37614 -0.89655,0.50958 -0.26981,0.13385 -0.66846,0.30899 -0.88658,0.3899 -0.21767,0.0809 -0.5838,0.19515 -0.81315,0.25395 -0.22935,0.0584 -0.57629,0.13927 -0.77145,0.17889 l -0.35445,0.0726 -42.93,0.0137 c -31.623,0.0104 -43.034,10e-4 -43.326,-0.0329 -0.21767,-0.0259 -0.57421,-0.0842 -0.7923,-0.13011 -0.21767,-0.0459 -0.55544,-0.13135 -0.7506,-0.18973 -0.19474,-0.0583 -0.49289,-0.16097 -0.6622,-0.22769 -0.16888,-0.0671 -0.48997,-0.21308 -0.71265,-0.32442 -0.22309,-0.11134 -0.57546,-0.30774 -0.78315,-0.43618 -0.20766,-0.12844 -0.54335,-0.36196 -0.74643,-0.51917 -0.20307,-0.1572 -0.51791,-0.4245 -0.69972,-0.59422 -0.18182,-0.16972 -0.50791,-0.515 -0.72433,-0.76725 -0.21601,-0.25229 -0.52917,-0.66512 -0.69473,-0.9174 -0.16596,-0.25229 -0.38906,-0.62008 -0.49581,-0.81735 -0.10675,-0.19724 -0.27772,-0.5592 -0.3803,-0.804 -0.103,-0.2452 -0.25228,-0.65219 -0.33235,-0.90488 -0.0796,-0.25269 -0.19182,-0.68805 -0.24894,-0.96787 -0.0567,-0.28023 -0.12344,-0.69139 -0.14762,-0.9141 -0.0279,-0.25812 -0.0438,-2.0254 -0.0438,-4.8685 v -4.455 z m -7.7978,-34.252 c -0.48121,-0.0104 -0.78315,0.003 -1.0046,0.0446 -0.1743,0.0329 -0.45202,0.10884 -0.61799,0.16888 -0.16554,0.0596 -0.41241,0.1739 -0.54877,0.25354 -0.13595,0.0797 -0.33735,0.23477 -0.44745,0.34486 -0.10967,0.11009 -0.25103,0.30149 -0.314,0.42534 -0.0626,0.12427 -1.6543,5.245 -3.5366,11.38 -2.8018,9.132 -3.4232,11.2 -3.4274,11.405 -0.004,0.19182 0.0213,0.30733 0.10842,0.49414 0.0709,0.15304 0.20391,0.33152 0.35779,0.47955 0.14803,0.14262 0.39115,0.31233 0.61549,0.42951 0.20391,0.10676 0.52417,0.24228 0.71224,0.30108 0.18765,0.0588 0.50666,0.12301 0.7089,0.14345 0.20183,0.02 0.50332,0.0217 0.66929,0.004 0.17639,-0.0188 0.40657,-0.0792 0.55461,-0.14595 0.16138,-0.0725 0.31317,-0.18181 0.41825,-0.30107 0.12427,-0.14095 0.19391,-0.28107 0.2819,-0.56671 0.0646,-0.2085 0.38781,-1.3406 0.7189,-2.5162 l 0.60173,-2.1371 h 4.0345 c 2.2189,0 4.0345,0.008 4.0345,0.0184 0,0.0104 0.29982,1.0847 0.66637,2.3873 0.36613,1.3031 0.71724,2.4699 0.7794,2.5934 0.0671,0.13302 0.17973,0.27271 0.27647,0.34277 0.0897,0.065 0.26897,0.15971 0.39866,0.21101 0.19641,0.0771 0.31734,0.0926 0.73558,0.0926 0.37697,4.1e-4 0.59297,-0.0225 0.8757,-0.0922 0.20642,-0.0509 0.56295,-0.18431 0.7923,-0.29607 0.28481,-0.13844 0.50332,-0.28231 0.68931,-0.45244 0.14969,-0.13762 0.32484,-0.34612 0.38864,-0.46413 0.0663,-0.12176 0.12676,-0.30941 0.13969,-0.43534 0.02,-0.19516 -0.0196,-0.36029 -0.33443,-1.3857 -0.19682,-0.64051 -1.7481,-5.6962 -3.4474,-11.235 -1.6997,-5.539 -3.1304,-10.155 -3.1792,-10.258 -0.0488,-0.10342 -0.20391,-0.30107 -0.34403,-0.43994 -0.17764,-0.17514 -0.36236,-0.30441 -0.60756,-0.42367 -0.19391,-0.0947 -0.51166,-0.21309 -0.70682,-0.26354 -0.27522,-0.0705 -0.50832,-0.0942 -1.0425,-0.10634 z m -0.13177,5.9685 c 0.0192,0.0217 0.70681,2.4132 1.5279,5.3147 0.8211,2.9011 1.5016,5.308 1.5129,5.348 l 0.0196,0.073 h -3.048 c -2.5916,0 -3.0491,-0.009 -3.0491,-0.0588 0,-0.0321 0.67554,-2.4419 1.5012,-5.3552 0.82568,-2.9136 1.5012,-5.3113 1.5012,-5.3293 0,-0.0175 0.0159,-0.0142 0.035,0.008 z m 18.145,-5.76 c -0.40741,-0.0104 -0.69305,0.003 -0.8757,0.0413 -0.14887,0.0313 -0.36654,0.0934 -0.4833,0.13802 -0.11718,0.0446 -0.29941,0.14095 -0.40533,0.21393 -0.10634,0.073 -0.24019,0.19473 -0.29774,0.27021 -0.0575,0.0755 -0.13302,0.21809 -0.16805,0.3165 -0.0563,0.1593 -0.0634,1.5133 -0.0634,11.822 v 11.642 l 0.0663,0.19516 c 0.0367,0.10717 0.15054,0.28815 0.25353,0.40282 0.12344,0.1372 0.28899,0.25813 0.48623,0.35529 0.16429,0.0809 0.43993,0.17639 0.61174,0.21225 0.17263,0.0358 0.51833,0.0646 0.77145,0.0646 0.28064,4.2e-4 0.58005,-0.0271 0.77145,-0.0705 0.17222,-0.0388 0.42742,-0.12219 0.56712,-0.18515 0.14011,-0.0634 0.3336,-0.18598 0.42993,-0.27313 0.0963,-0.0872 0.22559,-0.24437 0.28773,-0.34945 l 0.11217,-0.19099 0.0109,-11.716 0.0104,-11.716 -0.0663,-0.20058 c -0.0412,-0.12343 -0.14095,-0.27647 -0.26104,-0.39949 -0.10676,-0.11008 -0.29732,-0.24852 -0.42368,-0.30816 -0.12593,-0.0596 -0.34194,-0.13969 -0.47955,-0.17847 -0.16388,-0.0459 -0.45869,-0.0755 -0.85484,-0.0859 z"
       id="icon" /></g></svg>