<?xml version="1.0" encoding="UTF-8" standalone="no"?>
<svg
   xmlns:dc="http://purl.org/dc/elements/1.1/"
   xmlns:cc="http://creativecommons.org/ns#"
   xmlns:rdf="http://www.w3.org/1999/02/22-rdf-syntax-ns#"
   xmlns:svg="http://www.w3.org/2000/svg"
   xmlns="http://www.w3.org/2000/svg"
   id="svg13"
   xml:space="preserve"
   viewBox="0 0 1024 768"
   y="0px"
   x="0px"
   version="1.1"><metadata
     id="metadata19"><rdf:RDF><cc:Work
         rdf:about=""><dc:format>image/svg+xml</dc:format><dc:type
           rdf:resource="http://purl.org/dc/dcmitype/StillImage" /></cc:Work></rdf:RDF></metadata><defs
     id="defs17" /><rect
     id="rect2"
     height="768"
     width="1024"
     fill="#fcfcfc" /><g
     transform="matrix(1.2734,0,0,1.2734,-139.35,-95.888)"
     id="logo-group"><path
       stroke-miterlimit="2"
       d="m 348.7,333.01 h -5.04 l -1.17,-0.09 h -3.87 l -2.34,0.09 -1.08,-0.09 h -1.44 l -1.08,0.09 h -2.07 l -1.71,1.17 -0.45,1.26 -0.18001,1.26 -0.54,1.17 -0.18,1.26 -0.54,1.26 -0.45,1.26 -0.36,1.17 -0.18,1.26 -0.63,1.08 -0.18,1.35 -0.27,1.17 -0.36,1.08 -0.54,1.17 -0.45,1.26 -0.09,1.17 -0.54,1.35 -0.54,1.08 -0.09,1.26 -0.36,1.17 -0.63,1.17 -0.45,1.26 V 361 l -0.63,1.17 -0.18,1.08 -0.45,1.26 -0.18,1.17 -0.72,1.17 -0.18,1.44 -0.54,0.99 v 1.35 l -0.72,1.17 -0.45,1.17 -0.18,1.17 -0.27,1.44 -0.36,1.17 -0.45,1.26 -0.45,0.99 -0.09,1.35 -0.72,1.26 -0.18,0.99 -0.27,1.44 -0.36,1.08 -0.45,1.17 -0.54,1.26 -0.81,2.52 -0.27,1.26 -0.18,1.17 -0.45,1.17 -0.36,1.08 0.81,1.44 h 1.44 l 1.62,-0.27 h 1.17 l 1.44,0.27 1.44,-1.44 0.63,-0.99 0.18,-1.17 0.54,-1.35 0.45,-1.08 0.09,-1.17 0.36,-1.44 0.45,-1.17 0.36,-1.08 0.54,-1.17 0.18,-1.35 0.18,-1.17 1.08,-2.43 0.27,-1.17 0.18,-1.08 0.63,-1.26 0.27,-1.26 0.09,-0.99 2.07,-1.26 1.26,-0.18 h 1.17 l 1.17,0.18 1.35,-0.09 1.26,0.09 1.26,-0.09 h 1.62 l 1.26,-0.09 1.71,1.35 0.09,1.26 0.45,0.99 0.72,1.26 0.09,1.26 1.26,2.43 0.36,1.17 0.27,1.08 0.36,1.26 0.54,1.26 0.27,1.26 0.63,0.99 0.54,1.35 0.45,1.08 0.36,1.26 0.18,1.35 0.36,1.08 0.63,1.08 1.71,1.35 h 3.24 l 1.44,-0.18 1.26,0.18 0.63,-1.17 -0.27,-1.26 -0.45,-1.17 -0.81,-1.17 v -1.17 l -0.45,-1.26 -0.72,-1.26 -0.45,-0.99 -0.09,-1.17 -0.72,-1.35 -0.54,-0.99 -0.45,-1.35 -0.18,-0.99 -0.45,-1.44 -0.27,-0.99 -0.63,-1.26 -0.36,-1.17 -0.36,-1.08 -0.45,-1.17 -0.54,-1.35 0.99,-1.44 0.99,-0.36 1.17,-0.63 1.08,-0.54 1.53,-0.45 0.72,-0.63 1.35,-0.72 0.72,-0.9 1.26,-0.81 0.9,-0.81 0.72,-0.9 1.08,-0.99 0.72,-0.99 0.36,-1.17 0.63,-0.9 0.72,-1.17 0.63,-1.26 0.54,-1.26 0.18,-1.26 0.54,-2.43 0.36,-1.35 -0.27,-1.35 0.18,-2.7 -0.18,-1.17 -0.27,-1.26 -0.27,-1.44 -0.27,-1.08 -0.54,-1.17 -0.54,-1.26 -0.9,-0.99 -0.45,-0.9 -1.17,-0.99 -0.81,-0.72 -0.9,-0.9 -1.08,-0.54 -2.7,-0.9 -0.9,-0.36 -1.35,-0.36 -1.44,-0.09 z m 7.38,18.72 -0.54001,2.25 -0.72,1.26 -0.45,1.17 -0.63,1.08 -0.45,1.08 -0.9,0.81 -0.9,1.08 -0.63,0.9 -0.99,0.63 -1.35,0.81 -1.17,0.54 -1.08,0.45 -2.25,0.63 -1.44,0.18 -1.26,0.09 -2.61,-0.09 h -2.25 l -1.44,0.18 h -1.17 l -1.17,-0.18 -1.26,0.09 -1.44,-0.09 h -1.26 l -0.63,-1.17 0.17999,-1.08 0.63001,-1.26 0.18,-1.26 0.54,-1.35 0.45,-1.08 0.27,-1.17 0.54,-1.17 v -1.26 l 0.81,-1.44 0.18,-1.08 0.54,-1.35 0.09,-1.17 0.27,-1.26 0.81,-1.17 0.27,-1.08 0.18,-1.35 0.54,-1.08 0.36,-1.35 1.62,-1.26 0.99,-0.09 h 2.61 l 2.43,0.18 1.53,-0.18 1.26,0.09 2.16,0.09 1.44,0.18 1.08,0.27 1.08,0.45 1.26,0.54 1.17,0.9 0.9,0.99 0.63,0.99 0.45,1.17 0.36,1.08 v 1.26 l 0.36,2.34 z"
       style="font-variant-ligatures:none;stroke-width:0;stroke-miterlimit:2"
       id="path308738" /><path
       stroke-miterlimit="2"
       d="m 384.24,397.36 2.79,0.09 2.43,-0.18 0.9,-0.27 1.53,-0.36 0.9,-0.18 1.44,-0.45 1.08,-0.45 1.17,-0.72 1.17,-0.45 1.17,-0.63 0.81,-0.63 1.26,-0.72 0.72,-0.81 0.9,-0.99 1.26,-0.81 0.72,-0.81 0.63,-0.9 0.9,-1.08 1.08,-0.9 0.63,-1.08 0.72,-0.9 0.54,-0.9 1.08,-1.26 0.45,-0.99 0.81,-1.08 0.45,-0.99 0.54,-1.08 0.81,-1.26 -0.72,-1.89 -1.08,-0.72 -1.53,0.36 -0.72,1.08 -0.54,1.08 -0.81,1.35 -0.72,1.08 -0.99,0.99 -0.9,1.08 -0.54,0.99 -1.17,0.81 -0.63,0.81 -0.9,0.9 -1.08,0.99 -1.17,0.72 -0.9,0.72 -1.26,0.63 -1.08,0.45 -1.17,0.45 -0.9,0.54 -1.17,0.36 -1.35,0.45 -1.17,0.18 -0.99,0.09 -1.35,0.27 -2.52,-0.18 -2.43,-0.36 -1.26,-0.36 -0.99,-0.81 -0.81,-0.81 -0.81,-0.81 -0.63,-0.9 -0.72,-1.26 -0.36,-1.26 -0.18,-1.08 0.99,-1.35 1.08,-0.09 1.44,-0.09 1.17,-0.27 h 1.08 l 1.26,-0.45 1.35,-0.09 1.17,-0.36 1.17,-0.27 1.44,-0.54 1.17,-0.45 1.26,-0.36 0.81,-0.72 1.44,-0.63 0.99,-0.54 0.72,-0.72 0.99,-0.9 0.9,-0.72 0.72,-1.17 0.9,-0.99 0.81,-0.99 0.27,-1.08 0.45,-1.08 0.18,-1.08 0.36,-1.44 -0.18,-2.43 0.09,-1.26 -0.54,-0.99 -0.27,-1.26 -0.81,-0.9 -0.72,-0.99 -0.63,-0.99 -0.99,-0.72 -1.26,-0.72 -1.08,-0.27 -0.9,-0.36 -1.44,-0.27 -1.26,-0.27 h -2.34 l -1.17,0.18 -1.44,0.18 -1.35,0.18 -0.99,0.45 -1.08,0.54 -1.35,0.45 -0.81,0.72 -1.44,0.54 -0.63,0.63 -1.26,0.9 -0.81,0.99 -0.72,0.9 -1.17,0.81 -0.54,0.99 -0.63,1.08 -0.72,1.17 -0.81,1.08 -0.27,0.99 -0.63,1.17 -0.45,1.35 -0.36,1.17 -0.45,1.08 -0.18,1.17 -0.09,1.44 -0.63,1.08 v 1.35 l -0.18,1.35 0.18,2.43 -0.09,1.35 0.18,1.08 0.63,1.35 v 1.26 l 0.36,1.35 0.9,1.17 0.54,0.99 0.63,1.26 0.9,0.9 0.54,0.9 0.81,0.99 1.17,0.81 0.9,0.63 1.53,0.54 1.08,0.72 1.26,0.36 2.34,0.45 z m -5.85,-20.97 -1.08,-1.35 0.36,-1.17 0.09,-1.26 0.63,-1.35 0.27,-1.17 0.81,-1.17 0.54,-1.17 0.81,-1.08 0.72,-1.08 1.17,-0.81 0.99,-0.81 2.16,-1.35 1.26,-0.54 0.99,-0.09 2.43,-0.09 1.17,0.27 1.26,0.72 0.9,0.99 0.36,1.08 0.18,2.52 -0.27,1.08 -0.72,1.26 -0.72,0.9 -0.9,0.99 -0.81,0.9 -1.17,0.54 -1.44,0.63 -0.81,0.63 -1.35,0.45 -2.61,0.81 -1.44,0.27 -1.17,0.09 -1.26,0.27 z"
       style="font-variant-ligatures:none;stroke-width:0;stroke-miterlimit:2"
       id="path308740" /><path
       stroke-miterlimit="2"
       d="m 465.21,397.45 2.43,-0.18 1.35,-0.09 1.26,-0.45 0.99,-0.45 1.35,-0.72 0.9,-0.72 1.17,-0.81 0.99,-0.9 0.63,-0.9 1.08,-0.81 0.81,-0.99 0.63,-1.08 1.08,-0.99 0.72,-0.9 0.54,-1.26 0.9,-1.08 0.63,-0.81 0.63,-1.26 0.81,-0.99 0.72,-1.08 0.72,-1.08 0.72,-1.17 0.81,-0.99 0.27,-1.08 -0.09,-1.8 -1.53,-0.9 -1.71,0.27 -0.63,1.17 -0.63,1.08 -0.63,1.08 -0.81,1.08 -0.9,1.08 -0.72,1.17 -0.54,1.17 -0.63,0.9 -0.9,1.17 -0.63,0.81 -1.08,0.99 -0.9,0.99 -0.99,0.72 -0.81,0.81 -0.81,0.81 -0.99,0.36 -1.17,0.54 -2.34,-0.18 -1.08,-1.26 -0.27,-2.52 0.45,-1.17 0.36,-1.35 0.36,-1.26 0.63,-1.17 0.36,-1.17 0.36,-1.17 0.63,-1.08 0.27,-1.26 0.81,-1.17 0.27,-1.17 0.36,-1.17 0.27,-1.26 0.45,-1.35 0.45,-0.99 0.09,-1.44 0.27,-1.08 0.27,-1.26 0.09,-2.61 -0.27,-1.26 -0.45,-1.17 -0.45,-1.17 -0.63,-1.26 -0.9,-0.99 -0.72,-0.72 -1.26,-0.63 -0.9,-0.45 -1.53,-0.54 -0.9,-0.27 -2.52,0.09 -1.08,0.36 -1.35,0.27 -1.17,0.54 -1.17,0.45 -1.08,0.81 -1.08,0.54 -0.72,0.81 -0.9,0.9 -0.99,0.81 -0.9,1.08 -0.72,0.81 -0.54,0.99 -0.9,0.99 -0.81,1.08 -0.45,1.08 -0.81,1.26 -0.36,0.9 -0.45,1.26 0.18,-1.44 0.27,-1.26 v -1.08 l 0.18,-1.35 -0.09,-2.61 v -1.26 l -0.36,-1.26 -0.72,-1.17 -0.63,-0.9 -0.9,-0.9 -0.72,-0.9 -1.44,-0.54 -0.99,-0.18 -2.61,-0.18 -1.17,0.27 -1.26,0.45 -0.99,0.36 -1.35,0.63 -0.72,0.81 -1.35,0.81 -0.9,0.72 -0.72,0.9 -0.81,0.99 -1.08,0.9 -0.81,1.08 -0.54,0.99 -0.72,1.17 -0.72,1.08 -0.36,0.99 -0.9,1.08 0.27,-1.08 0.18,-1.26 0.27,-0.99 0.18,-1.26 0.27,-1.35 0.27,-0.99 0.27,-1.26 0.63,-1.26 0.18,-1.17 -1.08,-1.26 h -1.17 l -1.44,-0.09 h -1.17 l -1.71,1.35 -0.36,1.26 -0.27,1.08 -0.27,1.35 -0.72,1.26 -0.27,0.99 -0.36,1.35 -0.36,1.08 -0.09,1.35 -0.54,1.08 -0.18,1.26 -0.36,1.26 -0.54,1.35 -0.36,0.99 -0.9,2.61 -0.27,1.26 -0.09,0.99 -0.54,1.35 -0.27,1.26 -0.63,1.26 -0.18,0.99 -0.36,1.26 -0.18,1.26 -0.63,1.17 -0.09,1.17 -0.63,1.44 -0.18,1.08 -0.54,1.17 -0.36,1.17 -0.09,1.44 -0.63,0.99 1.08,1.17 1.44,0.27 1.08,-0.27 h 1.44 l 1.08,0.18 1.62,-1.35 0.27,-1.17 0.63,-1.08 0.36,-1.26 0.54,-1.26 0.18,-1.35 0.54,-1.17 0.27,-1.26 0.45,-1.17 0.54,-1.17 0.63,-1.35 0.45,-1.08 0.63,-1.17 0.09,-1.08 0.63,-1.35 0.45,-1.17 0.72,-1.08 0.54,-1.26 0.81,-1.17 0.36,-1.17 0.63,-0.99 0.45,-1.17 1.08,-0.9 0.36,-0.99 1.08,-1.17 0.63,-0.99 0.54,-0.72 0.9,-0.99 0.81,-0.72 0.99,-0.54 1.17,-0.54 0.72,-0.09 2.25,-0.09 0.81,0.81 0.99,0.99 0.36,0.99 v 2.52 l -0.36,1.08 v 1.35 l -0.27,1.17 -0.09,1.35 -0.54,1.17 v 1.26 l -0.54,1.08 -0.36,1.26 -0.27,1.08 -0.27,1.26 -0.63,1.08 -0.27,1.26 -0.36,1.17 -0.45,1.35 -0.36,0.99 -0.09,1.35 -0.27,1.17 -0.36,1.08 -0.63,1.35 -0.18,0.99 -0.54,1.35 -0.45,1.08 -0.09,1.26 0.72,0.99 2.79,0.27 2.61,-0.27 1.8,-1.17 0.45,-1.17 0.36,-1.26 0.45,-1.17 0.27,-1.35 0.63,-1.08 0.36,-1.26 0.27,-1.26 0.63,-1.17 0.45,-1.44 0.63,-1.08 0.54,-1.35 0.54,-0.99 0.18,-1.35 0.54,-1.17 0.72,-1.08 0.63,-1.35 0.72,-0.99 0.63,-1.17 0.63,-1.17 0.27,-1.17 1.08,-0.99 0.63,-1.08 0.63,-1.08 0.9,-0.9 0.45,-0.99 1.26,-0.72 0.54,-0.81 0.9,-0.81 0.9,-0.45 1.26,-0.45 1.17,-0.45 2.16,0.09 0.99,0.63 1.08,0.99 0.18,1.35 0.09,2.52 -0.09,1.17 -0.45,1.26 -0.36,1.08 -0.18,1.17 -0.72,1.26 -0.27,1.08 -0.45,1.17 -0.63,1.17 -0.27,1.08 -0.36,1.17 -0.54,1.17 -0.36,1.26 -0.36,1.35 -0.72,0.99 v 1.26 l -0.45,1.44 -0.18,1.26 0.18,2.34 0.18,1.44 0.54,1.17 0.54,1.26 0.9,0.81 0.81,0.9 0.9,0.63 1.53,0.63 z"
       style="font-variant-ligatures:none;stroke-width:0;stroke-miterlimit:2"
       id="path308742" /><path
       stroke-miterlimit="2"
       d="m 497.83,347.59 0.81,1.17 h 1.62 l 2.7,0.18 h 1.26 l 1.35,-1.17 0.54,-1.44 0.54,-1.26 0.27,-1.17 0.45,-1.26 0.18,-1.26 0.72,-1.17 0.45,-1.35 -0.9,-0.99 h -1.71 l -1.35,0.18 -0.99,0.18 -1.62,0.09 -1.71,1.17 -0.09,1.26 -0.36,1.17 -0.36,0.99 -0.81,1.35 v 1.17 l -0.36,1.08 z m -2.88,49.86 2.61,-0.09 0.9,-0.27 1.53,-0.36 1.08,-0.36 0.99,-0.72 1.17,-0.54 0.99,-0.72 1.89,-1.71 0.81,-0.9 0.63,-0.81 1.08,-0.9 1.44,-1.89 0.63,-1.17 0.9,-1.08 0.36,-0.9 0.99,-1.17 0.45,-0.9 0.9,-1.17 0.63,-0.9 0.63,-0.99 0.63,-1.17 0.36,-1.08 0.81,-1.08 -0.63,-1.8 -0.9,-0.72 -1.89,0.18 -0.72,1.26 -0.36,0.99 -0.9,1.26 -0.45,0.99 -0.9,1.08 -0.72,1.08 -0.9,1.08 -0.45,0.9 -0.81,1.17 -0.72,1.08 -1.08,0.81 -0.99,0.99 -0.9,0.81 -1.08,0.9 -0.72,0.63 -2.34,0.99 -2.61,-0.27 -0.81,-0.72 -0.9,-0.9 -0.27,-1.17 -0.36,-2.52 0.45,-1.35 -0.09,-1.17 0.45,-1.26 0.09,-0.99 0.36,-1.35 0.27,-1.26 0.27,-1.17 0.45,-1.08 0.27,-1.17 0.27,-1.26 0.54,-1.08 0.18,-1.44 0.45,-1.17 0.63,-1.08 0.36,-1.08 0.09,-1.26 0.54,-1.08 0.36,-1.26 0.27,-1.35 0.36,-0.99 0.72,-1.26 0.09,-1.08 0.36,-1.35 -0.72,-1.17 -1.35,0.09 -1.44,-0.18 h -2.7 l -1.44,1.35 -0.45,1.44 -0.63,1.17 -0.36,1.26 -0.45,1.35 -0.45,1.26 -0.36,1.17 -0.27,1.35 -0.63,1.17 v 1.44 l -0.54,1.26 -0.36,1.26 -0.36,1.26 -0.27,1.08 -0.45,1.35 -0.45,1.08 -0.36,1.44 -0.45,0.99 -0.09,1.44 -0.09,0.99 -0.27,1.26 -0.54,1.08 -0.09,1.26 0.09,0.9 v 1.26 l -0.09,2.25 0.09,1.26 0.18,1.08 0.81,1.17 0.63,1.17 0.54,0.99 0.99,0.9 0.9,0.63 1.35,0.54 0.99,0.27 z"
       style="font-variant-ligatures:none;stroke-width:0;stroke-miterlimit:2"
       id="path308744" /><path
       stroke-miterlimit="2"
       d="m 549.32,374.05 -1.71,0.27 -0.72,1.17 -0.99,1.08 -0.63,1.26 -0.45,0.9 -0.99,1.08 -0.72,1.08 -0.72,1.17 -0.54,0.9 -1.17,1.26 -0.54,0.81 -1.08,1.08 -0.99,0.81 -0.99,0.72 -0.72,0.81 -1.44,0.54 -0.81,0.45 -1.26,0.36 -1.26,0.27 -2.7,-0.09 -1.08,-0.63 -0.72,-0.99 -0.54,-1.44 -0.36,-2.43 0.09,-1.26 0.27,-1.35 0.27,-1.26 v -1.26 l 0.54,-1.17 0.09,-1.35 0.36,-1.26 0.09,-1.17 0.45,-1.35 0.18,-1.08 0.45,-1.26 0.36,-1.44 0.45,-1.17 0.09,-1.26 0.45,-1.26 0.27,-1.17 0.72,-1.08 1.62,-1.26 1.17,-0.18 h 2.52 l 1.08,0.18 1.62,-0.18 1.17,0.18 1.35,-0.18 1.17,0.09 1.89,-1.08 0.36,-1.26 0.27,-1.17 0.27,-1.17 -0.72,-1.26 h -4.14 l -1.35,-0.09 -1.08,-0.09 -1.35,0.18 H 536 l -1.53,-0.18 -0.99,-1.08 0.54,-2.34 0.54,-1.17 0.18,-1.08 0.36,-1.44 0.63,-1.17 0.18,-1.17 0.45,-1.08 0.18,-1.08 0.72,-1.26 0.09,-1.26 0.36,-1.26 0.63,-1.08 0.09,-1.08 -0.9,-1.17 -1.26,0.18 -2.61,0.18 -1.17,0.09 -1.8,1.17 -0.36,1.44 -0.09,1.08 -0.72,1.35 -0.18,0.99 -0.36,1.44 -0.27,1.26 -0.9,2.25 -0.27,1.35 -0.54,1.08 -0.27,1.35 -0.27,1.17 -0.27,1.17 -1.71,1.26 h -1.26 l -1.62,0.09 -1.26,-0.18 -1.53,1.35 -0.45,1.17 -0.45,1.17 -0.36,1.26 0.9,1.17 1.35,-0.09 1.62,0.09 1.26,0.09 0.72,1.26 -0.09,1.17 -0.27,1.26 -0.72,1.08 -0.36,1.26 -0.18,1.35 -0.09,1.08 -0.72,1.35 -0.18,1.26 -0.18,1.17 -0.45,1.08 -0.36,1.35 -0.09,1.26 -0.27,1.17 -0.09,1.08 -0.45,1.35 v 0.99 l -0.36,1.26 -0.09,1.26 v 1.08 l -0.09,2.52 0.18,1.35 0.45,1.17 0.54,1.17 0.63,1.26 0.72,0.81 0.9,1.08 1.26,0.63 0.99,0.45 1.35,0.45 1.26,0.36 2.43,-0.18 1.62,-0.09 2.07,-0.54 1.35,-0.54 1.17,-0.72 0.81,-0.63 0.99,-0.63 1.26,-0.63 0.9,-0.81 0.99,-0.81 0.63,-0.99 0.72,-0.99 0.99,-0.81 0.72,-1.08 0.9,-0.9 0.81,-1.08 0.54,-1.08 0.72,-0.81 0.63,-1.17 0.54,-1.08 0.9,-0.99 0.81,-1.17 0.54,-0.9 0.45,-1.17 0.54,-1.17 -0.36,-1.62 z"
       style="font-variant-ligatures:none;stroke-width:0;stroke-miterlimit:2"
       id="path308746" /><path
       stroke-miterlimit="2"
       d="m 606.48,356.23 -1.62,0.54 -0.9,0.99 -0.54,1.08 -0.72,1.26 -0.72,0.99 -0.72,0.81 -0.72,0.99 -0.81,1.08 -0.9,0.9 -0.81,0.72 -0.99,0.72 -0.99,0.54 -1.17,0.27 -1.17,0.45 h -2.34 l -1.44,-0.54 -1.08,-1.98 -0.45,-1.08 -0.27,-1.35 -0.72,-1.17 -0.45,-1.26 -0.9,-1.08 -0.72,-0.9 -0.81,-0.99 -1.17,-0.72 -0.9,-0.72 -1.35,-0.36 -0.99,-0.54 -1.17,-0.09 h -2.7 l -1.26,0.09 -1.17,0.36 -1.17,0.27 -1.26,0.54 -0.72,0.72 -1.26,0.63 -0.9,0.72 -1.08,0.9 -0.81,0.81 -0.9,0.99 -0.81,0.9 -0.54,0.99 0.09,-1.26 0.18,-1.44 0.27,-1.26 0.27,-1.35 -1.17,-1.44 h -3.69 l -1.62,1.17 -0.27,1.26 -0.45,1.26 -0.63,1.35 v 1.08 l -0.72,1.26 -0.18,1.17 -0.45,1.17 -0.36,1.26 -0.09,1.26 -0.36,1.17 -0.45,1.17 -0.45,1.35 -0.18,1.26 -0.45,1.08 -0.63,1.35 -0.09,1.26 -0.27,1.17 -0.54,1.08 -0.18,1.17 -0.63,1.35 -0.36,1.17 -0.36,1.35 v 1.08 l -0.63,1.26 -0.36,1.26 -0.18,1.26 -0.63,1.26 -0.18,0.99 -0.36,1.44 -0.54,0.99 -0.27,1.44 -0.45,1.08 -0.27,1.17 -0.18,1.35 -0.18,1.17 -0.72,1.26 -0.27,1.17 -0.09,1.35 -0.63,0.99 -0.36,1.26 -0.18,1.26 -0.27,1.35 -0.54,1.26 -0.18,1.08 -0.36,1.26 -0.72,1.08 -0.27,1.44 -0.27,0.99 -0.54,1.26 -0.09,1.17 -0.27,1.26 0.63,1.26 1.53,0.09 1.08,0.09 h 2.34 l 1.98,-1.44 0.09,-1.08 0.27,-1.17 0.36,-1.35 0.36,-1.08 0.63,-1.17 0.27,-1.44 0.27,-1.08 0.18,-1.26 0.36,-1.26 0.54,-1.17 0.18,-1.08 0.54,-1.44 0.36,-1.08 0.45,-1.35 v -1.17 l 0.45,-1.17 0.54,-1.26 0.27,-1.17 0.45,-1.17 v -1.26 l 0.36,-1.26 0.54,-1.26 0.09,-1.17 0.36,-1.26 0.81,-1.17 0.36,1.35 0.36,0.99 0.63,1.26 0.81,0.99 1.17,0.99 0.72,0.54 1.26,0.72 0.99,0.63 1.26,0.36 1.26,0.45 1.44,0.09 h 2.52 l 1.08,-0.09 1.17,-0.27 1.26,-0.45 1.26,-0.36 1.26,-0.63 1.26,-0.45 1.08,-0.72 0.81,-0.72 1.08,-0.9 0.9,-0.72 0.9,-0.99 0.72,-0.81 0.99,-1.08 0.9,-1.08 0.36,-0.9 0.63,-1.17 0.99,-1.17 0.54,-1.08 0.54,-1.17 0.27,-1.26 0.45,-1.26 0.45,-1.26 0.27,-1.08 v -1.35 l 0.27,-1.26 0.36,-1.26 0.9,-1.17 2.61,0.18 0.9,-0.18 1.53,-0.45 0.81,-0.45 1.53,-0.54 0.81,-0.81 1.17,-0.54 0.9,-0.99 0.9,-0.99 0.9,-0.9 0.63,-0.9 1.08,-1.08 0.45,-1.17 0.63,-0.9 0.72,-1.35 0.72,-0.9 0.54,-1.35 0.72,-1.17 -0.54,-1.53 z m -35.73,33.84 -2.97,0.09 -0.99,-0.45 -0.99001,-0.45 -1.26,-0.54 -0.9,-0.99 -0.99,-0.99 -0.27,-1.26 -0.81,-1.17 -0.27,-1.17 0.09,-1.17 -0.27,-2.61 v -1.44 l 0.54,-1.26 0.09,-1.08 0.54,-1.35 0.36,-1.08 0.45,-1.17 0.27,-1.26 0.72,-1.17 0.45,-0.9 0.9,-0.99 0.81,-0.99 0.72001,-1.17 0.81,-0.9 1.26,-0.63 0.72,-0.72 1.26,-0.54 1.26,-0.54 0.99,-0.27 h 2.43 l 1.44,0.27 1.17,0.72 0.63,0.63 0.99,0.9 0.81,1.17 0.54,0.99 0.45,1.26 0.09,1.17 0.09,1.44 0.18,2.52 -0.27,1.26 -0.18,1.26 -0.36,1.44 -0.18,1.17 -0.27,1.26 -0.63,1.17 -0.45,1.35 -0.72,0.9 -0.72,1.35 -0.81,1.08 -0.54,0.81 -0.81,1.08 -0.99,0.9 -0.9,0.63 -1.35,0.72 -1.08,0.45 z"
       style="font-variant-ligatures:none;stroke-width:0;stroke-miterlimit:2"
       id="path308748" /><path
       stroke-miterlimit="2"
       d="m 600.9,394.93 1.08,1.17 1.44,-0.18 h 1.17 l 1.35,0.18 1.08,-0.18 1.71,-1.08 0.36,-1.44 0.36,-1.08 0.45,-1.26 0.45,-1.26 0.36,-1.35 0.09,-1.17 0.63,-1.17 0.54,-1.35 0.27,-1.35 0.27,-1.17 0.72,-1.35 0.27,-1.08 0.45,-1.17 0.54,-1.17 0.72,-1.26 0.36,-1.35 0.81,-0.99 0.45,-1.35 0.54,-1.17 0.81,-0.99 0.54,-1.26 0.72,-0.99 0.81,-1.17 0.81,-0.81 0.81,-0.9 0.45,-0.99 0.99,-0.63 0.72,-0.72 1.08,-0.45 1.08,-0.36 2.25,0.09 0.9,0.81 0.45,1.08 0.45,2.43 -0.18,1.26 1.17,0.9 2.43,0.18 1.62,-0.18 1.35,-1.17 0.54,-1.26 0.18,-1.35 v -2.61 l -0.18,-1.26 -0.45,-1.44 -0.36,-1.17 -0.72,-1.08 -1.08,-0.81 -0.99,-0.81 -0.99,-0.72 -1.53,-0.27 -2.16,0.18 -2.52,0.54 -1.35,0.54 -0.9,0.63 -1.17,0.81 -1.71,1.8 -0.63,1.08 -1.08,0.9 -0.9,0.9 -0.72,1.17 -0.54,1.08 -0.72,1.08 -0.63,1.08 0.09,-1.26 0.27,-1.35 0.54,-1.44 v -1.35 l 0.54,-1.08 0.36,-1.35 0.09,-1.35 -1.08,-1.44 -1.35,0.18 h -2.34 l -1.8,1.26 -0.45,0.99 -0.27,1.44 -0.18,0.99 -0.36,1.26 -0.54,1.17 -0.09,1.26 -0.54,1.17 -0.45,1.35 -0.09,1.17 -0.54,1.17 v 1.17 l -0.63,1.44 -0.09,1.17 -0.45,1.17 -0.18,1.08 -0.54,1.44 -0.45,1.17 v 1.26 l -0.27,1.17 -0.45,1.17 -0.54,1.08 -0.27,1.35 -0.09,1.08 -0.45,1.35 -0.63,1.08 -0.27,1.44 -0.36,0.99 -0.36,1.35 v 1.08 l -0.63,1.35 z"
       style="font-variant-ligatures:none;stroke-width:0;stroke-miterlimit:2"
       id="path308750" /><path
       style="fill:#ffc107;stroke-width:0.42706001"
       d="m 678.03,336.22 c -0.003,0 -2.014,1.1597 -4.4692,2.577 -2.455,1.4173 -4.4666,2.5858 -4.4705,2.5965 -0.004,0.0107 5.1918,3.0208 11.546,6.689 l 11.552,6.6694 v 13.351 c 0,7.3429 0.007,13.351 0.0149,13.351 0.008,0 2.0278,-1.1618 4.4875,-2.582 l 4.4756,-2.5837 v -26.716 l -11.565,-6.6762 c -6.3589,-3.6719 -11.565,-6.6762 -11.569,-6.6762 z m -11.391,6.651 c -0.0195,0.001 -5.2127,2.9918 -11.54,6.6459 -6.3273,3.6538 -11.523,6.6578 -11.546,6.6758 l -0.042,0.0323 0.006,5.1704 0.006,5.17 7.7763,-4.4897 c 4.277,-2.4692 8.4016,-4.8505 9.1656,-5.2917 0.76409,-0.44141 2.4649,-1.4235 3.7801,-2.1828 1.315,-0.7591 2.3961,-1.3803 2.402,-1.3803 0.006,0 5.2114,3.0025 11.567,6.6724 6.3559,3.6697 11.56,6.6724 11.566,6.6724 0.005,0 0.007,-2.3305 0.003,-5.179 l -0.004,-5.1794 -11.552,-6.6694 c -6.3529,-3.668 -11.567,-6.6685 -11.587,-6.6673 z m 36.941,8.3533 -0.0416,-0.023 -10e-4,13.363 -8.5e-4,13.363 -11.375,6.5652 c -6.256,3.6108 -11.46,6.6143 -11.564,6.6745 l -0.18925,0.10899 4.4717,2.5832 c 2.4592,1.4209 4.4833,2.5836 4.4982,2.5841 0.0149,4.3e-4 5.2264,-3.0008 11.581,-6.6694 l 11.554,-6.6702 -0.005,-13.364 -0.005,-13.364 -4.4401,-2.5647 c -2.4421,-1.4104 -4.4589,-2.5749 -4.4816,-2.5874 z m -36.941,4.7767 c -0.007,9.4e-4 -5.214,3.0058 -11.57,6.6771 l -11.558,6.6758 v 26.715 l 4.4722,2.582 c 2.46,1.4201 4.4794,2.582 4.4876,2.582 0.009,0 0.0154,-6.0074 0.0157,-13.35 l 2.4e-4,-13.35 11.552,-6.6694 c 6.3542,-3.6683 11.549,-6.6788 11.546,-6.6895 -0.004,-0.0109 -2.0152,-1.1794 -4.47,-2.5967 -2.4547,-1.4171 -4.4688,-2.5758 -4.476,-2.5749 z m -2.7494,14.912 c -0.01,10e-4 -2.0164,1.1578 -4.4589,2.5703 -2.4426,1.4128 -4.4538,2.577 -4.47,2.5877 -0.0223,0.0149 -0.0287,2.9372 -0.0287,13.362 v 13.343 l 0.089,0.0575 c 0.0489,0.0313 5.2481,3.0355 11.554,6.6754 6.3055,3.6398 11.479,6.6194 11.496,6.6211 0.0171,10e-4 2.0406,-1.1566 4.4969,-2.5734 2.4562,-1.4171 4.4662,-2.5818 4.4662,-2.5882 2.3e-4,-0.007 -5.1683,-2.9956 -11.486,-6.6425 -6.3175,-3.6471 -11.521,-6.6536 -11.563,-6.6792 l -0.0772,-0.047 v -13.33 c 0,-7.3394 -0.008,-13.344 -0.0178,-13.343 z m 2.3778,14.989 c -0.028,-0.0109 -0.033,0.75269 -0.033,5.161 v 5.1738 l 11.555,6.6711 c 6.3551,3.6692 11.566,6.6741 11.581,6.6771 0.0145,0.003 5.2251,-2.9958 11.578,-6.6643 l 11.552,-6.6702 0.006,-5.1781 c 0.003,-2.8482 0.002,-5.1785 -0.003,-5.1785 -0.005,0 -5.2101,3.0025 -11.566,6.6724 l -11.556,6.6707 -11.54,-6.6621 c -6.347,-3.6642 -11.555,-6.6707 -11.573,-6.675 z"
       id="icon" /></g></svg>