<?xml version="1.0" encoding="UTF-8" standalone="no"?>
<svg
   xmlns:dc="http://purl.org/dc/elements/1.1/"
   xmlns:cc="http://creativecommons.org/ns#"
   xmlns:rdf="http://www.w3.org/1999/02/22-rdf-syntax-ns#"
   xmlns:svg="http://www.w3.org/2000/svg"
   xmlns="http://www.w3.org/2000/svg"
   id="svg6"
   xml:space="preserve"
   enable-background="new 0 0 200 200"
   viewBox="0 0 200 200"
   y="0px"
   x="0px"
   version="1.1"><metadata
     id="metadata12"><rdf:RDF><cc:Work
         rdf:about=""><dc:format>image/svg+xml</dc:format><dc:type
           rdf:resource="http://purl.org/dc/dcmitype/StillImage" /></cc:Work></rdf:RDF></metadata><defs
     id="defs10" /><rect
     id="rect2"
     fill="#66aedf"
     height="200"
     width="200" /><path
     id="path4"
     d="m126.61 40c-5.0794 0-9.2051 4.1277-9.2051 9.207v0.10553c0 5.0794 4.1257 9.207 9.2051 9.207 4.9735 0 8.9941-4.1277 8.9941-9.207v-0.106c0-5.0793-4.0206-9.207-8.9941-9.207zm-26.663 18.518c-19.365 0-35.555 15.874-35.555 35.346 0 19.788 16.189 35.66 35.555 35.66 19.471 0 35.344-15.872 35.344-35.66 0-19.471-15.872-35.346-35.344-35.346zm0 17.355c9.8416 0 17.883 8.0432 17.883 17.99 0 10.158-8.0413 18.199-17.883 18.199-9.947 0-18.201-8.0412-18.201-18.199 0-9.947 8.2542-17.99 18.201-17.99zm-23.386 57.667c-4.9735 0-8.7832 4.0213-8.7832 8.7832 0 2.4338 1.1643 4.6565 2.8574 6.3496 8.6773 7.9365 18.942 11.322 29.312 11.322s20.423-3.281 28.994-11.006c1.6931-1.6931 2.8574-3.915 2.8574-6.5606 0-4.7618-3.8099-8.6777-8.6777-8.6777-2.2222 0-4.3385 0.95248-5.9258 2.3281-5.0794 4.9736-10.37 6.4551-17.248 6.4551-6.984 0-12.276-1.4812-17.461-6.5605-1.5873-1.5873-3.7035-2.4336-5.9258-2.4336z"
     fill="#fcfcfc" /></svg>