<?xml version="1.0" encoding="UTF-8" standalone="no"?>
<svg
   xmlns:dc="http://purl.org/dc/elements/1.1/"
   xmlns:cc="http://creativecommons.org/ns#"
   xmlns:rdf="http://www.w3.org/1999/02/22-rdf-syntax-ns#"
   xmlns:svg="http://www.w3.org/2000/svg"
   xmlns="http://www.w3.org/2000/svg"
   id="svg8"
   xml:space="preserve"
   enable-background="new 0 0 1024 1024"
   viewBox="0 0 1024 1024"
   y="0px"
   x="0px"
   version="1.1"><metadata
     id="metadata14"><rdf:RDF><cc:Work
         rdf:about=""><dc:format>image/svg+xml</dc:format><dc:type
           rdf:resource="http://purl.org/dc/dcmitype/StillImage" /></cc:Work></rdf:RDF></metadata><defs
     id="defs12" /><rect
     id="rect2"
     fill="#000000"
     y="0"
     x="0"
     height="1024"
     width="1024" /><g
     id="g6"
     transform="translate(0,128)"><path
       style="fill:#ffffff"
       id="path4"
       d="m 499.96,266.64 c -16.84,0 -30.81,0.02 -31.04,0.04 -0.23,0.02 -0.57,0.05 -0.75,0.08 -0.19,0.02 -0.57,0.09 -0.86,0.15 -0.28,0.06 -0.75,0.17 -1.04,0.25 -0.29,0.08 -0.74,0.23 -1.02,0.34 -0.28,0.1 -0.73,0.29 -1,0.43 -0.28,0.13 -0.7,0.34 -0.93,0.47 -0.23,0.13 -0.63,0.38 -0.89,0.55 -0.26,0.18 -0.7,0.5 -0.97,0.72 -0.28,0.22 -0.8,0.69 -1.15,1.05 -0.36,0.36 -0.82,0.85 -1.02,1.11 -0.2,0.25 -0.57,0.76 -0.82,1.14 -0.28,0.42 -0.61,1 -0.85,1.46 -0.21,0.43 -0.48,1.03 -0.6,1.35 -0.12,0.31 -0.29,0.82 -0.38,1.13 -0.09,0.31 -0.21,0.79 -0.27,1.07 -0.05,0.29 -0.13,0.72 -0.17,0.98 -0.03,0.25 -0.08,0.68 -0.1,0.95 -0.03,0.33 -0.04,12.1 -0.04,34.23 l -0.01,33.73 h -4.94 l -0.32,0.08 c -0.18,0.04 -0.44,0.14 -0.58,0.22 -0.15,0.07 -0.37,0.23 -0.5,0.35 -0.13,0.12 -0.29,0.31 -0.36,0.42 -0.07,0.11 -0.18,0.32 -0.23,0.45 l -0.09,0.25 -0.01,20.01 c -0.01,14.05 0,20.11 0.03,20.31 0.03,0.17 0.11,0.42 0.19,0.59 0.09,0.19 0.23,0.38 0.38,0.53 0.12,0.13 0.34,0.3 0.47,0.38 0.13,0.08 0.35,0.19 0.5,0.24 l 0.27,0.1 2.6,0.01 2.59,0.01 v 4.37 c 0,2.54 0.02,4.6 0.05,4.91 0.02,0.3 0.07,0.74 0.1,1 0.04,0.25 0.12,0.68 0.17,0.97 0.06,0.28 0.18,0.76 0.27,1.07 0.09,0.31 0.26,0.82 0.38,1.14 0.12,0.31 0.39,0.92 0.6,1.34 0.24,0.46 0.57,1.05 0.85,1.46 0.25,0.38 0.62,0.89 0.82,1.14 0.19,0.24 0.57,0.66 0.82,0.93 0.26,0.26 0.66,0.65 0.9,0.86 0.24,0.2 0.63,0.52 0.86,0.69 0.23,0.17 0.57,0.41 0.75,0.53 0.19,0.11 0.51,0.31 0.72,0.43 0.21,0.12 0.6,0.32 0.87,0.45 0.26,0.13 0.7,0.31 0.96,0.41 0.26,0.11 0.7,0.25 0.97,0.33 0.27,0.08 0.7,0.19 0.97,0.25 0.26,0.06 0.67,0.13 0.91,0.17 0.24,0.04 0.71,0.08 1.05,0.11 0.42,0.03 13.25,0.04 43.41,0.03 l 42.8,-0.02 0.5,-0.07 c 0.27,-0.04 0.73,-0.12 1.02,-0.18 0.3,-0.05 0.8,-0.17 1.11,-0.26 0.32,-0.1 0.84,-0.28 1.16,-0.41 0.32,-0.12 0.82,-0.35 1.11,-0.49 0.29,-0.15 0.73,-0.39 0.98,-0.54 0.25,-0.15 0.62,-0.4 0.81,-0.54 0.2,-0.14 0.54,-0.4 0.77,-0.58 0.23,-0.19 0.71,-0.63 1.07,-0.99 0.35,-0.35 0.81,-0.85 1.01,-1.1 0.21,-0.26 0.52,-0.68 0.69,-0.94 0.18,-0.26 0.44,-0.66 0.57,-0.89 0.13,-0.22 0.38,-0.69 0.54,-1.04 0.17,-0.35 0.4,-0.89 0.52,-1.2 0.11,-0.31 0.27,-0.8 0.35,-1.08 0.08,-0.29 0.19,-0.7 0.23,-0.92 0.05,-0.22 0.11,-0.52 0.14,-0.67 0.02,-0.15 0.07,-0.48 0.11,-0.75 0.05,-0.4 0.07,-1.2 0.08,-5.2 l 0.02,-4.72 2.59,-0.01 2.59,-0.01 0.31,-0.12 c 0.17,-0.06 0.4,-0.17 0.52,-0.25 0.12,-0.08 0.3,-0.23 0.4,-0.33 0.1,-0.1 0.24,-0.26 0.3,-0.36 0.07,-0.1 0.16,-0.31 0.21,-0.46 l 0.1,-0.28 v -40.35 l -0.1,-0.24 c -0.05,-0.14 -0.15,-0.34 -0.22,-0.45 -0.07,-0.11 -0.23,-0.3 -0.37,-0.42 -0.13,-0.12 -0.35,-0.28 -0.49,-0.36 -0.14,-0.07 -0.4,-0.17 -0.58,-0.22 l -0.32,-0.08 h -4.95 v -22.22 c 0,-14.44 -0.01,-22.3 -0.04,-22.44 -0.02,-0.12 -0.09,-0.33 -0.14,-0.47 -0.06,-0.14 -0.17,-0.35 -0.24,-0.46 -0.07,-0.11 -7.77,-7.7 -17.12,-16.87 -9.34,-9.17 -17.38,-17.05 -17.86,-17.51 -0.74,-0.72 -0.91,-0.86 -1.17,-0.99 -0.17,-0.08 -0.43,-0.18 -0.6,-0.21 -0.25,-0.05 -4.11,-0.06 -30.91,-0.06 z m 27.94,4.71 0.01,12.79 0.02,12.79 0.09,0.51 c 0.05,0.29 0.16,0.75 0.24,1.02 0.07,0.28 0.22,0.72 0.31,0.97 0.1,0.25 0.3,0.68 0.44,0.96 0.14,0.28 0.39,0.7 0.54,0.94 0.16,0.23 0.43,0.61 0.61,0.83 0.17,0.22 0.55,0.62 0.84,0.9 0.29,0.28 0.7,0.64 0.93,0.81 0.22,0.17 0.63,0.44 0.91,0.61 0.27,0.17 0.72,0.41 1,0.53 0.28,0.13 0.74,0.31 1.02,0.4 0.27,0.09 0.71,0.21 0.97,0.27 0.26,0.06 0.71,0.13 1,0.17 0.45,0.06 2.08,0.06 13.52,0.06 h 13 v 41.96 H 460.77 v -33.79 c 0,-23.38 0.01,-33.9 0.04,-34.18 0.02,-0.22 0.09,-0.64 0.15,-0.92 0.06,-0.28 0.17,-0.71 0.25,-0.96 0.08,-0.26 0.23,-0.66 0.33,-0.91 0.1,-0.24 0.27,-0.6 0.38,-0.8 0.11,-0.2 0.33,-0.57 0.5,-0.82 0.16,-0.25 0.46,-0.65 0.65,-0.87 0.2,-0.23 0.5,-0.57 0.69,-0.74 0.18,-0.18 0.48,-0.44 0.66,-0.58 0.18,-0.14 0.51,-0.38 0.74,-0.53 0.22,-0.14 0.61,-0.36 0.85,-0.49 0.25,-0.12 0.6,-0.28 0.77,-0.35 0.17,-0.06 0.46,-0.17 0.66,-0.22 0.19,-0.06 0.5,-0.14 0.69,-0.18 0.18,-0.04 0.49,-0.1 0.68,-0.13 0.28,-0.04 6.56,-0.05 29.73,-0.05 z m 4.71,3.21 c 0.02,0.01 5.97,5.8 13.23,12.86 7.26,7.07 13.42,13.07 13.69,13.34 l 0.5,0.48 -11.34,-0.01 -11.34,-0.01 -0.38,-0.09 c -0.2,-0.05 -0.52,-0.13 -0.7,-0.19 -0.18,-0.06 -0.46,-0.18 -0.62,-0.26 -0.17,-0.09 -0.46,-0.26 -0.66,-0.38 -0.21,-0.14 -0.53,-0.41 -0.79,-0.68 -0.25,-0.24 -0.54,-0.58 -0.66,-0.75 -0.11,-0.18 -0.28,-0.47 -0.37,-0.65 -0.09,-0.18 -0.22,-0.47 -0.28,-0.64 -0.06,-0.16 -0.15,-0.48 -0.2,-0.7 l -0.09,-0.41 -0.01,-10.96 c -0.01,-6.53 0,-10.96 0.02,-10.95 z m -78.88,77.97 h 58.33 58.34 v 34.61 H 453.73 Z m 50.53,5.03 c -0.48,-0.01 -0.78,0.01 -1,0.05 -0.18,0.03 -0.45,0.11 -0.62,0.17 -0.16,0.05 -0.41,0.17 -0.55,0.25 -0.13,0.08 -0.34,0.23 -0.45,0.34 -0.11,0.11 -0.25,0.3 -0.31,0.43 -0.06,0.12 -1.65,5.24 -3.54,11.38 -2.8,9.13 -3.42,11.2 -3.42,11.41 -0.01,0.19 0.02,0.3 0.1,0.49 0.08,0.15 0.21,0.33 0.36,0.48 0.15,0.14 0.39,0.31 0.62,0.43 0.2,0.11 0.52,0.24 0.71,0.3 0.19,0.06 0.51,0.12 0.71,0.14 0.2,0.02 0.5,0.03 0.67,0.01 0.18,-0.02 0.41,-0.08 0.55,-0.15 0.17,-0.07 0.32,-0.18 0.42,-0.3 0.13,-0.14 0.19,-0.28 0.28,-0.57 0.07,-0.2 0.39,-1.34 0.72,-2.51 l 0.6,-2.14 h 4.04 c 2.22,0 4.03,0.01 4.03,0.02 0,0.01 0.3,1.08 0.67,2.39 0.37,1.3 0.72,2.47 0.78,2.59 0.07,0.13 0.18,0.27 0.27,0.34 0.09,0.07 0.27,0.16 0.4,0.21 0.2,0.08 0.32,0.1 0.74,0.1 0.38,0 0.59,-0.03 0.87,-0.1 0.21,-0.05 0.57,-0.18 0.8,-0.29 0.28,-0.14 0.5,-0.29 0.69,-0.46 0.15,-0.13 0.32,-0.34 0.39,-0.46 0.06,-0.12 0.12,-0.31 0.13,-0.43 0.02,-0.2 -0.02,-0.37 -0.33,-1.39 -0.2,-0.64 -1.75,-5.7 -3.45,-11.24 -1.7,-5.53 -3.13,-10.15 -3.18,-10.26 -0.05,-0.1 -0.2,-0.3 -0.34,-0.43 -0.18,-0.18 -0.36,-0.31 -0.61,-0.43 -0.19,-0.09 -0.51,-0.21 -0.71,-0.26 -0.27,-0.07 -0.5,-0.1 -1.04,-0.11 z m 18.02,0.21 c -0.41,-0.01 -0.7,0 -0.88,0.04 -0.15,0.03 -0.37,0.09 -0.48,0.14 -0.12,0.04 -0.3,0.14 -0.41,0.21 -0.1,0.08 -0.24,0.2 -0.3,0.27 -0.05,0.08 -0.13,0.22 -0.17,0.32 -0.05,0.16 -0.06,1.51 -0.06,11.82 v 11.64 l 0.07,0.2 c 0.04,0.11 0.15,0.29 0.25,0.4 0.13,0.14 0.29,0.26 0.49,0.36 0.16,0.08 0.44,0.17 0.61,0.21 0.17,0.04 0.52,0.07 0.77,0.07 0.28,0 0.58,-0.03 0.77,-0.07 0.18,-0.04 0.43,-0.13 0.57,-0.19 0.14,-0.06 0.33,-0.19 0.43,-0.27 0.1,-0.09 0.23,-0.25 0.29,-0.35 l 0.11,-0.19 0.01,-11.72 0.01,-11.72 -0.07,-0.2 c -0.04,-0.12 -0.14,-0.27 -0.26,-0.4 -0.1,-0.11 -0.29,-0.25 -0.42,-0.3 -0.13,-0.06 -0.34,-0.15 -0.48,-0.18 -0.16,-0.05 -0.46,-0.08 -0.85,-0.09 z m -18.18,5.75 c 0,-0.01 0.01,-0.01 0.03,0.01 0.02,0.02 0.71,2.41 1.53,5.32 0.82,2.9 1.5,5.3 1.51,5.34 l 0.02,0.08 h -3.05 c -2.59,0 -3.05,-0.01 -3.05,-0.06 0,-0.04 0.68,-2.45 1.51,-5.36 0.82,-2.91 1.5,-5.31 1.5,-5.33 z m 7.96,28.29 h 51.29 v 4.48 c 0,3.76 -0.01,4.55 -0.06,4.99 -0.04,0.28 -0.1,0.68 -0.15,0.87 -0.04,0.2 -0.13,0.53 -0.18,0.74 -0.06,0.2 -0.21,0.61 -0.33,0.9 -0.11,0.3 -0.32,0.74 -0.46,0.99 -0.13,0.24 -0.36,0.62 -0.51,0.85 -0.15,0.22 -0.45,0.6 -0.66,0.85 -0.21,0.25 -0.52,0.58 -0.69,0.73 -0.16,0.16 -0.44,0.4 -0.62,0.54 -0.18,0.14 -0.5,0.38 -0.73,0.53 -0.22,0.14 -0.62,0.37 -0.89,0.51 -0.27,0.13 -0.67,0.3 -0.89,0.38 -0.22,0.08 -0.58,0.2 -0.81,0.26 -0.23,0.06 -0.58,0.14 -0.77,0.18 l -0.36,0.07 -42.93,0.01 c -31.62,0.01 -43.03,0 -43.33,-0.03 -0.21,-0.03 -0.57,-0.08 -0.79,-0.13 -0.21,-0.04 -0.55,-0.13 -0.75,-0.19 -0.19,-0.06 -0.49,-0.16 -0.66,-0.23 -0.17,-0.06 -0.49,-0.21 -0.71,-0.32 -0.23,-0.11 -0.58,-0.31 -0.79,-0.44 -0.2,-0.12 -0.54,-0.36 -0.74,-0.52 -0.21,-0.15 -0.52,-0.42 -0.7,-0.59 -0.18,-0.17 -0.51,-0.52 -0.73,-0.77 -0.21,-0.25 -0.53,-0.66 -0.69,-0.92 -0.17,-0.25 -0.39,-0.61 -0.5,-0.81 -0.1,-0.2 -0.27,-0.56 -0.38,-0.81 -0.1,-0.24 -0.25,-0.65 -0.33,-0.9 -0.08,-0.25 -0.19,-0.69 -0.25,-0.97 -0.06,-0.28 -0.12,-0.69 -0.15,-0.91 -0.02,-0.26 -0.04,-2.03 -0.04,-4.87 v -4.46 z m -265.57,41.78 c -2.87,0 -5.2,2.33 -5.2,5.2 v 0.06 c 0,2.86 2.33,5.19 5.2,5.19 2.81,0 5.08,-2.33 5.08,-5.19 v -0.06 c 0,-2.87 -2.27,-5.2 -5.08,-5.2 z m 430.44,0.12 c -2.73,0.02 -4.92,2.21 -4.92,4.95 V 464 c 0,11.15 8.94,20.11 19.93,20.14 H 692 c 2.69,-0.12 4.84,-2.26 4.88,-4.95 -0.04,-2.69 -2.19,-4.84 -4.88,-4.88 h -0.08 0.08 c -5.59,0 -10.15,-4.57 -10.15,-10.31 v -9.76 h 5.19 c 2.23,0 4.1,-1.44 4.73,-3.45 0.15,-0.46 0.23,-0.95 0.23,-1.47 0,-0.34 -0.04,-0.67 -0.11,-0.99 -0.03,-0.16 -0.07,-0.32 -0.12,-0.47 v -0.01 c -0.05,-0.15 -0.11,-0.3 -0.17,-0.45 -0.75,-1.77 -2.5,-2.99 -4.56,-2.99 h -5.19 v -5.75 c 0,-2.74 -2.18,-4.93 -4.92,-4.95 z m -297.59,10.33 c -11,0 -19.97,8.97 -19.97,19.98 0,11.16 8.97,20.13 19.97,20.13 6.77,0 12.84,-3.44 16.49,-8.71 l 2.49,5.45 c 0.8,1.75 2.54,2.86 4.46,2.86 0.66,0 1.29,-0.13 1.86,-0.36 0.93,-0.38 1.7,-1.04 2.23,-1.85 0.02,-0.03 0.04,-0.06 0.05,-0.09 0.4,-0.63 0.66,-1.36 0.73,-2.12 0.01,-0.04 0.01,-0.08 0.01,-0.12 0.01,-0.16 0.02,-0.33 0.01,-0.49 v -0.11 c -0.03,-0.59 -0.17,-1.2 -0.44,-1.79 l -9.72,-21.22 c -0.02,-0.04 -0.04,-0.08 -0.06,-0.11 -0.01,-0.01 -0.01,-0.03 -0.02,-0.04 -0.05,-0.1 -0.1,-0.21 -0.16,-0.31 l -0.3,-0.6 c -0.04,-0.05 -0.07,-0.11 -0.1,-0.17 -0.24,-0.42 -0.48,-0.82 -0.75,-1.22 -0.01,-0.02 -0.02,-0.04 -0.03,-0.05 -0.23,-0.35 -0.47,-0.69 -0.72,-1.02 -0.06,-0.07 -0.11,-0.14 -0.17,-0.21 -0.23,-0.3 -0.46,-0.59 -0.71,-0.87 -0.07,-0.08 -0.13,-0.15 -0.2,-0.23 -0.25,-0.28 -0.51,-0.55 -0.77,-0.81 -0.08,-0.08 -0.15,-0.15 -0.23,-0.22 -0.26,-0.26 -0.53,-0.5 -0.8,-0.74 -0.08,-0.07 -0.16,-0.14 -0.25,-0.21 -0.3,-0.26 -0.61,-0.5 -0.92,-0.74 -0.05,-0.03 -0.09,-0.07 -0.14,-0.1 -0.34,-0.25 -0.68,-0.49 -1.03,-0.72 -0.05,-0.03 -0.11,-0.06 -0.16,-0.09 -0.37,-0.24 -0.76,-0.47 -1.15,-0.68 -0.27,-0.14 -0.53,-0.28 -0.8,-0.41 -0.03,-0.02 -0.07,-0.03 -0.1,-0.05 -0.24,-0.12 -0.49,-0.23 -0.74,-0.33 -0.06,-0.03 -0.12,-0.06 -0.18,-0.08 -0.23,-0.1 -0.46,-0.19 -0.69,-0.27 -0.09,-0.04 -0.17,-0.07 -0.26,-0.1 -0.1,-0.03 -0.19,-0.07 -0.28,-0.1 -0.05,-0.02 -0.1,-0.03 -0.14,-0.04 -1.99,-0.67 -4.11,-1.04 -6.31,-1.04 z m -147.91,0 c -10.94,0 -20.08,8.97 -20.08,19.97 0,11.17 9.14,20.14 20.08,20.14 10.99,0 19.96,-8.97 19.96,-20.14 0,-11 -8.97,-19.97 -19.96,-19.97 z m 48.59,0 c -10.84,0 -19.9,8.81 -20.05,19.67 0,0.09 -0.01,0.18 -0.01,0.27 0,2.74 2.21,4.95 4.96,4.95 h 30.07 c 2.75,0 4.96,-2.21 4.96,-4.95 0,-0.09 -0.01,-0.17 -0.01,-0.26 -0.14,-10.86 -9.03,-19.68 -19.92,-19.68 z m 49.26,0 c -11,0 -19.97,8.97 -19.97,19.97 v 14.76 c 0,2.75 2.21,4.96 4.96,4.96 2.69,0 4.85,-2.21 4.85,-4.96 v -14.76 c 0,-5.62 4.6,-10.16 10.16,-10.16 5.61,0 10.21,4.54 10.21,10.16 v 14.76 c 0,2.75 2.22,4.96 4.97,4.96 2.68,0 4.9,-2.21 4.9,-4.96 v -14.76 c 0,-11 -9.15,-19.97 -20.08,-19.97 z m 122.57,0 c -10.83,0 -19.89,8.81 -20.04,19.67 -0.01,0.09 -0.01,0.18 -0.01,0.27 0,2.74 2.21,4.95 4.95,4.95 h 30.08 c 2.75,0 4.95,-2.21 4.95,-4.95 v -0.26 c -0.14,-10.86 -9.04,-19.68 -19.93,-19.68 z m 97.48,0 c -10.94,0 -20.08,8.97 -20.08,20.15 v 0.02 0.04 0.03 0.01 24.98 c 0,2.52 1.8,4.78 4.3,5.11 2.99,0.4 5.5,-1.95 5.5,-4.92 v -8.17 c 3.02,1.81 6.54,2.86 10.28,2.86 10.99,0 19.96,-8.97 19.96,-19.96 0,-11.18 -8.97,-20.15 -19.96,-20.15 z m 48.85,0 c -10.92,0 -20.05,8.96 -20.05,19.94 0,2.74 2.21,4.95 4.95,4.95 h 30.08 c 2.74,0 4.95,-2.21 4.95,-4.95 0,-10.98 -8.95,-19.94 -19.93,-19.94 z m 49.26,0 c -11,0 -19.96,8.97 -19.96,19.97 v 14.76 c 0,2.75 2.21,4.96 4.96,4.96 2.68,0 4.84,-2.21 4.84,-4.96 v -14.76 c 0,-5.62 4.6,-10.16 10.16,-10.16 2.75,0 5.38,1.07 7.17,2.98 1.97,1.8 4.96,1.8 6.93,-0.06 1.85,-1.97 1.85,-4.96 0,-6.93 -3.64,-3.64 -8.66,-5.8 -14.1,-5.8 z m 145.28,0 c -10.83,0 -19.9,8.82 -20.04,19.68 -0.01,0.08 -0.01,0.17 -0.01,0.26 0,0.17 0.01,0.34 0.03,0.5 0.01,0.17 0.04,0.34 0.07,0.5 0.03,0.16 0.08,0.32 0.12,0.47 0.05,0.16 0.11,0.31 0.17,0.46 0.06,0.15 0.13,0.29 0.21,0.43 0.07,0.14 0.16,0.28 0.25,0.41 0.08,0.13 0.18,0.26 0.28,0.38 0.1,0.12 0.21,0.24 0.32,0.35 0.11,0.11 0.23,0.22 0.35,0.32 0.12,0.1 0.25,0.2 0.38,0.29 0.13,0.08 0.27,0.17 0.41,0.24 0.14,0.08 0.29,0.15 0.43,0.21 0.15,0.06 0.3,0.12 0.46,0.17 0.15,0.05 0.31,0.09 0.47,0.12 0.16,0.03 0.33,0.06 0.5,0.07 0.16,0.02 0.33,0.03 0.5,0.03 h 30.08 c 0.17,0 0.34,-0.01 0.51,-0.03 0.17,-0.01 0.33,-0.04 0.49,-0.07 0.16,-0.03 0.32,-0.07 0.48,-0.12 0.15,-0.05 0.3,-0.11 0.45,-0.17 0.15,-0.06 0.3,-0.13 0.44,-0.21 0.14,-0.07 0.27,-0.16 0.4,-0.24 0.14,-0.09 0.26,-0.19 0.39,-0.29 0.12,-0.1 0.24,-0.21 0.35,-0.32 0.11,-0.11 0.22,-0.23 0.32,-0.35 0.1,-0.12 0.19,-0.25 0.28,-0.38 0.09,-0.13 0.17,-0.27 0.25,-0.41 0.07,-0.14 0.15,-0.28 0.21,-0.43 0.06,-0.15 0.12,-0.3 0.16,-0.46 0.05,-0.15 0.09,-0.31 0.12,-0.47 0.04,-0.16 0.06,-0.33 0.08,-0.5 0.02,-0.16 0.02,-0.33 0.02,-0.5 v -0.26 c -0.14,-10.86 -9.03,-19.68 -19.93,-19.68 z m -308.51,0.12 c -2.69,0.05 -4.83,2.19 -4.95,4.87 h -0.01 v 0.08 c 0,0 0,-0.01 0.01,-0.02 0.01,5.98 2.68,11.35 6.9,15 -0.27,0.23 -0.53,0.47 -0.78,0.71 -0.25,0.24 -0.49,0.49 -0.73,0.74 -0.24,0.25 -0.47,0.51 -0.7,0.78 -0.1,0.12 -0.19,0.24 -0.29,0.36 -2.74,3.4 -4.39,7.7 -4.41,12.39 v 0.02 0.06 h 0.01 c 0.08,1.85 1.12,3.44 2.63,4.26 0.69,0.38 1.48,0.6 2.32,0.61 2.69,-0.04 4.83,-2.18 4.87,-4.87 0,-2.09 0.64,-4.04 1.75,-5.66 v -0.01 c 0.18,-0.26 0.38,-0.52 0.59,-0.77 v -0.01 c 1.88,-2.25 4.73,-3.69 7.96,-3.69 1.75,0 3.39,0.44 4.83,1.22 1.15,0.63 2.17,1.47 2.99,2.48 0.2,0.23 0.38,0.48 0.56,0.74 0.01,0.01 0.02,0.02 0.03,0.04 0,0.01 0.01,0.02 0.02,0.03 1.08,1.61 1.71,3.55 1.71,5.63 h 0.01 c 0.06,1.34 0.62,2.55 1.51,3.43 0.44,0.43 0.97,0.79 1.55,1.04 0.43,0.19 0.9,0.31 1.39,0.37 0.16,0.01 0.33,0.03 0.5,0.03 1.85,-0.03 3.44,-1.05 4.26,-2.56 0.23,-0.41 0.4,-0.86 0.5,-1.33 0.03,-0.16 0.06,-0.32 0.08,-0.49 0.02,-0.16 0.03,-0.32 0.03,-0.49 v -0.05 c 0,-0.33 -0.01,-0.66 -0.03,-0.99 0,-0.09 -0.01,-0.17 -0.01,-0.26 -0.02,-0.28 -0.04,-0.56 -0.07,-0.83 -0.01,-0.09 -0.02,-0.17 -0.03,-0.26 -0.08,-0.64 -0.19,-1.28 -0.33,-1.91 -0.01,-0.07 -0.03,-0.15 -0.05,-0.23 -0.06,-0.27 -0.13,-0.54 -0.21,-0.8 -0.02,-0.08 -0.04,-0.16 -0.06,-0.23 -0.18,-0.61 -0.38,-1.21 -0.61,-1.79 -1.19,-2.99 -3.08,-5.63 -5.47,-7.71 4.19,-3.65 6.85,-9.01 6.87,-14.98 v -0.02 -0.06 c -0.04,-2.68 -2.19,-4.82 -4.87,-4.87 -2.69,0.05 -4.83,2.19 -4.95,4.87 h -0.01 c 0,5.59 -4.56,10.15 -10.14,10.15 -5.74,0 -10.3,-4.56 -10.3,-10.15 -0.04,-2.68 -2.18,-4.82 -4.87,-4.87 z m -67.95,0.24 c -2.75,0 -4.96,2.21 -4.96,4.96 v 29.41 c 0,2.75 2.21,4.96 4.96,4.96 2.69,0 4.84,-2.21 4.84,-4.96 v -29.41 c 0,-2.75 -2.15,-4.96 -4.84,-4.96 z m 295.4,0 c -2.75,0 -4.96,2.21 -4.96,4.96 v 29.41 c 0,2.75 2.21,4.96 4.96,4.96 2.69,0 4.84,-2.21 4.84,-4.96 v -29.41 c 0,-2.75 -2.15,-4.96 -4.84,-4.96 z m 42.68,0 c -5.14,0 -9.33,3.17 -10.76,8.25 l -5.32,19.9 c -0.24,0.78 -0.96,1.38 -1.85,1.38 h -5.32 c -2.75,0 -4.9,2.09 -4.96,4.84 0.06,2.75 2.21,4.9 4.96,4.9 l 5.91,0.06 c 5.14,0 9.33,-3.17 10.76,-8.25 l 5.32,-19.9 c 0.24,-0.78 0.96,-1.32 1.85,-1.32 h 5.32 c 2.75,0 4.9,-2.15 4.96,-4.9 -0.06,-2.75 -2.21,-4.9 -4.96,-4.9 z m -474.32,9.43 c 3.79,0 7.11,2.12 8.83,5.25 h -17.81 c 1.76,-3.13 5.14,-5.25 8.98,-5.25 z m 171.83,0 c 3.79,0 7.11,2.12 8.83,5.25 h -17.81 c 1.76,-3.13 5.15,-5.25 8.98,-5.25 z m 146.33,0 c 3.79,0 7.11,2.12 8.83,5.25 H 589.2 c 1.76,-3.13 5.15,-5.25 8.98,-5.25 z m 194.54,0 c 3.8,0 7.11,2.12 8.83,5.25 h -17.81 c 1.77,-3.13 5.15,-5.25 8.98,-5.25 z m -561.29,0.02 c 5.55,0 10.1,4.54 10.1,10.16 0,5.73 -4.55,10.28 -10.1,10.28 -5.62,0 -10.28,-4.55 -10.28,-10.28 0,-5.62 4.66,-10.16 10.28,-10.16 z m 147.91,0.02 c 1.33,0 2.61,0.27 3.78,0.74 0.09,0.03 0.18,0.07 0.26,0.1 0.26,0.12 0.52,0.24 0.77,0.37 l 0.06,0.03 c 3.17,1.73 5.36,5.08 5.36,8.91 0,5.74 -4.64,10.3 -10.23,10.3 -5.58,0 -10.14,-4.56 -10.14,-10.3 0,-5.59 4.56,-10.15 10.14,-10.15 z m 169.99,0.04 c 5.55,0 10.1,4.54 10.1,10.28 0,5.61 -4.55,10.16 -10.1,10.16 -5.61,0 -10.26,-4.52 -10.28,-10.12 0,-0.14 0.01,-0.28 0.01,-0.41 0.01,-0.15 0.02,-0.29 0.03,-0.43 0.35,-4.14 3.11,-7.53 6.8,-8.82 0.21,-0.07 0.41,-0.16 0.6,-0.26 0.9,-0.26 1.85,-0.4 2.84,-0.4 z M 271.11,471.4 c -0.81,0.02 -1.63,0.25 -2.36,0.69 -3.02,1.82 -3.17,6.14 -0.29,8.18 3.29,2.33 7.28,3.7 11.56,3.7 4.27,0 8.27,-1.37 11.55,-3.7 2.88,-2.04 2.73,-6.36 -0.29,-8.18 -0.84,-0.5 -1.78,-0.73 -2.71,-0.69 -0.35,0.02 -0.7,0.07 -1.04,0.16 -0.11,0.03 -0.23,0.07 -0.34,0.1 -0.22,0.08 -0.44,0.17 -0.65,0.28 -0.11,0.05 -0.22,0.11 -0.32,0.18 -0.1,0.06 -0.2,0.12 -0.3,0.19 -1.05,0.74 -2.24,1.28 -3.52,1.59 -0.25,0.06 -0.51,0.11 -0.78,0.15 -0.39,0.07 -0.79,0.11 -1.2,0.12 -0.13,0.01 -0.27,0.01 -0.4,0.01 -2.19,0 -4.23,-0.69 -5.9,-1.87 -0.9,-0.63 -1.96,-0.94 -3.01,-0.91 z m 171.84,0 c -0.82,0.02 -1.63,0.25 -2.36,0.69 -3.03,1.82 -3.17,6.14 -0.29,8.18 3.28,2.33 7.28,3.7 11.55,3.7 4.27,0 8.27,-1.37 11.56,-3.7 2.88,-2.04 2.73,-6.36 -0.29,-8.18 -0.84,-0.5 -1.78,-0.73 -2.71,-0.69 -0.35,0.02 -0.7,0.07 -1.04,0.16 -0.12,0.03 -0.23,0.07 -0.34,0.1 -0.23,0.08 -0.45,0.17 -0.66,0.28 -0.11,0.05 -0.21,0.11 -0.31,0.18 -0.11,0.06 -0.21,0.12 -0.31,0.19 -1.04,0.74 -2.23,1.28 -3.51,1.59 -0.26,0.06 -0.52,0.11 -0.78,0.15 -0.39,0.07 -0.79,0.11 -1.2,0.12 -0.14,0.01 -0.27,0.01 -0.41,0.01 -2.19,0 -4.22,-0.69 -5.9,-1.87 -0.9,-0.63 -1.95,-0.94 -3,-0.91 z m 146.33,0 c -0.82,0.02 -1.63,0.25 -2.37,0.69 -3.02,1.82 -3.17,6.14 -0.29,8.18 3.29,2.33 7.29,3.7 11.56,3.7 4.27,0 8.27,-1.37 11.55,-3.7 2.88,-2.04 2.74,-6.36 -0.29,-8.18 -0.83,-0.5 -1.78,-0.73 -2.71,-0.69 -0.35,0.02 -0.7,0.07 -1.04,0.16 -0.11,0.03 -0.22,0.07 -0.33,0.1 -0.23,0.08 -0.45,0.17 -0.66,0.28 -0.11,0.05 -0.21,0.11 -0.32,0.18 -0.1,0.06 -0.2,0.12 -0.3,0.19 -1.05,0.74 -2.24,1.28 -3.52,1.59 -0.25,0.06 -0.51,0.11 -0.77,0.15 -0.4,0.07 -0.8,0.11 -1.2,0.12 -0.14,0.01 -0.27,0.01 -0.41,0.01 -2.19,0 -4.23,-0.69 -5.9,-1.87 -0.9,-0.63 -1.96,-0.94 -3,-0.91 z m 194.54,0 c -0.82,0.02 -1.63,0.25 -2.36,0.69 -3.03,1.82 -3.17,6.14 -0.29,8.18 3.28,2.33 7.28,3.7 11.55,3.7 4.28,0 8.27,-1.37 11.56,-3.7 2.88,-2.04 2.73,-6.36 -0.29,-8.18 -0.84,-0.5 -1.78,-0.73 -2.71,-0.69 -0.35,0.02 -0.7,0.07 -1.04,0.16 -0.12,0.03 -0.23,0.07 -0.34,0.1 -0.23,0.08 -0.44,0.17 -0.66,0.28 -0.1,0.05 -0.21,0.11 -0.31,0.18 -0.11,0.06 -0.21,0.12 -0.31,0.19 -1.04,0.74 -2.23,1.28 -3.51,1.59 -0.26,0.06 -0.52,0.11 -0.78,0.15 -0.39,0.07 -0.79,0.11 -1.2,0.12 -0.13,0.01 -0.27,0.01 -0.41,0.01 -2.18,0 -4.22,-0.69 -5.9,-1.87 -0.9,-0.63 -1.95,-0.94 -3,-0.91 z m -565.6,15.02 c -2.81,0 -4.96,2.27 -4.96,4.96 0,1.37 0.65,2.63 1.61,3.58 4.9,4.49 10.7,6.4 16.56,6.4 5.85,0 11.53,-1.85 16.37,-6.22 0.96,-0.95 1.62,-2.21 1.62,-3.7 0,-2.69 -2.16,-4.9 -4.9,-4.9 -1.26,0 -2.46,0.54 -3.35,1.31 -2.87,2.81 -5.86,3.65 -9.74,3.65 -3.95,0 -6.94,-0.84 -9.87,-3.71 -0.89,-0.89 -2.09,-1.37 -3.34,-1.37 z" /></g></svg>